<svg width="117" height="122" viewBox="0 0 117 122" fill="none" xmlns="http://www.w3.org/2000/svg">
<path id="Star 1" d="M57.2439 0.977204C58.032 -0.240671 59.8139 -0.240671 60.6021 0.977205L71.5712 17.9276C72.0856 18.7224 73.0867 19.0477 73.97 18.707L92.8075 11.4414C94.1609 10.9193 95.6025 11.9667 95.5243 13.4153L94.4354 33.5759C94.3843 34.5212 95.0031 35.3729 95.9179 35.6165L115.428 40.8108C116.83 41.184 117.381 42.8787 116.466 44.0046L103.735 59.6749C103.138 60.4097 103.138 61.4623 103.735 62.1971L116.466 77.8674C117.381 78.9933 116.83 80.688 115.428 81.0612L95.9179 86.2556C95.0031 86.4991 94.3843 87.3508 94.4354 88.2961L95.5243 108.457C95.6025 109.905 94.1609 110.953 92.8075 110.431L73.97 103.165C73.0867 102.824 72.0856 103.15 71.5712 103.944L60.6021 120.895C59.8139 122.113 58.032 122.113 57.2439 120.895L46.2747 103.944C45.7604 103.15 44.7592 102.824 43.8759 103.165L25.0385 110.431C23.685 110.953 22.2434 109.905 22.3217 108.457L23.4106 88.2961C23.4616 87.3508 22.8429 86.4991 21.928 86.2556L2.41763 81.0612C1.01582 80.688 0.465179 78.9933 1.3799 77.8674L14.111 62.1971C14.708 61.4623 14.708 60.4097 14.111 59.6749L1.3799 44.0046C0.46518 42.8787 1.01582 41.184 2.41763 40.8108L21.928 35.6165C22.8429 35.3729 23.4616 34.5212 23.4106 33.5759L22.3217 13.4153C22.2434 11.9667 23.685 10.9193 25.0385 11.4414L43.8759 18.707C44.7592 19.0477 45.7604 18.7224 46.2747 17.9276L57.2439 0.977204Z" fill="#FDE602"/>
</svg>
