<svg xmlns="http://www.w3.org/2000/svg" xmlns:xlink="http://www.w3.org/1999/xlink" x="0px"
	 y="0px" viewBox="0 0 222 57" style="enable-background:new 0 0 222 57;" xml:space="preserve">
<style type="text/css">
	.st0{enable-background:new    ;}
	.st1{clip-path:url(#SVGID_2_);}
	.st2{fill:#67801A;}
	.st3{fill:#95B21B;}
	.st4{fill:#2C4C04;}
</style>
<g class="st0">
	<path d="M85.8,41.6c-1,1.1-2,2-3,2.7c-0.9,0.7-1.9,1.3-2.8,1.8c-0.9,0.5-1.8,0.8-2.7,1c-0.9,0.2-1.7,0.3-2.6,0.3
		c-1.5,0-3-0.3-4.5-1c-1.5-0.7-2.8-1.6-3.9-2.9c-1.1-1.3-2.1-2.8-2.8-4.6c-0.7-1.8-1.1-3.9-1.1-6.2c0-2.6,0.4-4.9,1.2-6.9
		c0.8-2.1,1.8-3.8,3.2-5.3s2.9-2.6,4.7-3.4c1.8-0.8,3.7-1.2,5.7-1.2c0.9,0,1.7,0.1,2.5,0.2c0.8,0.1,1.5,0.3,2.2,0.5
		c0.7,0.2,1.3,0.5,1.9,0.8c0.6,0.3,1.1,0.6,1.5,0.9c0.1,0.1,0.1,0.3-0.1,0.6c-0.2,0.3-0.4,0.7-0.6,1.1c-0.3,0.4-0.5,0.8-0.8,1.1
		s-0.5,0.7-0.7,0.8L82,21.7c-0.8-1-1.8-1.7-2.9-2.2c-1.1-0.5-2.3-0.8-3.7-0.8c-0.5,0-1.1,0.1-1.8,0.3c-0.6,0.2-1.3,0.5-1.9,0.9
		c-0.6,0.4-1.2,1-1.8,1.7C69.5,22.2,69,23,68.5,24s-0.8,2.1-1,3.4c-0.3,1.3-0.4,2.8-0.4,4.4c0,2.1,0.3,3.9,0.9,5.5
		c0.6,1.6,1.3,2.8,2.3,3.9c0.9,1,2,1.8,3.1,2.3c1.1,0.5,2.3,0.8,3.4,0.8c0.4,0,0.9-0.1,1.5-0.2c0.6-0.1,1.2-0.3,1.9-0.6
		c0.7-0.3,1.4-0.7,2.2-1.2c0.8-0.5,1.6-1.1,2.5-1.8c0.1,0,0.2,0.1,0.3,0.3c0.1,0.1,0.2,0.2,0.3,0.4c0.1,0.1,0.2,0.3,0.3,0.4
		C85.7,41.5,85.8,41.6,85.8,41.6z"/>
	<path d="M110.5,44.5c-1.4,0.9-2.6,1.7-3.6,2.2c-1.1,0.5-1.8,0.8-2.3,0.8c-0.6,0-1-0.4-1.4-1.1c-0.4-0.7-0.6-1.7-0.6-3
		c-0.7,0.7-1.4,1.4-2.2,1.9c-0.7,0.5-1.4,0.9-2.1,1.3c-0.7,0.3-1.3,0.6-2,0.7c-0.6,0.1-1.2,0.2-1.7,0.2c-0.6,0-1.2-0.1-1.8-0.3
		c-0.6-0.2-1.2-0.5-1.7-0.9c-0.5-0.4-0.9-1-1.2-1.7c-0.3-0.7-0.5-1.5-0.5-2.4c0-1.2,0.2-2.1,0.6-2.9c0.4-0.8,0.9-1.5,1.5-2.1
		c0.4-0.4,0.8-0.8,1.3-1.1c0.5-0.4,1.1-0.7,1.9-1c0.8-0.3,1.8-0.6,3.1-0.9c1.2-0.3,2.8-0.6,4.7-0.9V30c0-0.5-0.1-1-0.2-1.5
		c-0.1-0.5-0.3-0.8-0.6-1.2c-0.3-0.3-0.7-0.6-1.1-0.8c-0.5-0.2-1.1-0.3-1.8-0.3c-0.5,0-0.9,0.1-1.4,0.2c-0.4,0.2-0.8,0.4-1.2,0.6
		c-0.3,0.3-0.6,0.6-0.8,1c-0.2,0.4-0.3,0.8-0.2,1.3c0,0.1-0.1,0.2-0.3,0.3c-0.2,0.1-0.5,0.3-0.8,0.4c-0.3,0.1-0.7,0.2-1,0.4
		s-0.7,0.2-1.1,0.3c-0.4,0.1-0.7,0.1-1,0.2s-0.5,0-0.6,0L90.1,30c0.4-0.8,0.9-1.7,1.7-2.4c0.8-0.8,1.7-1.4,2.7-2
		c1-0.6,2.1-1,3.2-1.4s2.3-0.5,3.4-0.5c1.9,0,3.3,0.5,4.3,1.5c1,1,1.5,2.3,1.5,3.9v12.8c0,0.7,0.1,1.1,0.3,1.4s0.4,0.4,0.7,0.4
		c0.2,0,0.5,0,0.8-0.1c0.3-0.1,0.8-0.3,1.5-0.5L110.5,44.5z M96.6,43.9c0.8,0,1.7-0.2,2.7-0.7c1-0.4,2.1-1.2,3.3-2.2v-5.9
		c-1.2,0.2-2.2,0.4-3,0.6c-0.8,0.2-1.5,0.4-2,0.6c-0.5,0.2-0.9,0.4-1.3,0.6c-0.3,0.2-0.6,0.5-0.8,0.7c-0.4,0.4-0.8,0.9-1,1.4
		c-0.3,0.5-0.4,1.1-0.4,1.9c0,0.6,0.1,1.1,0.3,1.5s0.4,0.7,0.6,0.9c0.3,0.2,0.5,0.4,0.8,0.5S96.4,43.9,96.6,43.9z"/>
	<path d="M126.8,46.7v-1.3c1.1-0.3,2-0.6,2.5-0.8s0.8-0.4,0.8-0.7V31.9c0-0.9,0-1.7-0.1-2.3c-0.1-0.6-0.3-1.1-0.5-1.4
		s-0.5-0.6-0.9-0.7c-0.4-0.1-0.8-0.2-1.3-0.2c-0.5,0-1,0.1-1.5,0.3c-0.6,0.2-1.1,0.5-1.8,0.9c-0.6,0.4-1.3,1-2,1.7
		c-0.7,0.7-1.5,1.6-2.2,2.6V44c0,0.2,0.3,0.5,0.9,0.7c0.6,0.3,1.4,0.5,2.4,0.7v1.3h-10.9v-1.3c1.1-0.3,1.9-0.5,2.4-0.7
		c0.6-0.2,0.8-0.5,0.8-0.7V29.8c0-0.6,0-1.1-0.1-1.5c0-0.4-0.2-0.7-0.4-0.9s-0.5-0.4-1-0.5c-0.4-0.1-1.1-0.2-1.9-0.3v-1.2
		c1.2-0.2,2.3-0.4,3.3-0.7c1-0.3,2-0.7,3-1.1l0.9,0.9l0.3,5.1c0.8-1,1.6-1.8,2.5-2.6c0.9-0.8,1.7-1.4,2.5-1.9
		c0.8-0.5,1.6-0.9,2.4-1.1c0.8-0.3,1.5-0.4,2.1-0.4c0.7,0,1.3,0.1,2,0.3c0.6,0.2,1.2,0.5,1.7,1c0.5,0.4,0.9,1,1.2,1.7
		c0.3,0.7,0.4,1.5,0.4,2.5V44c0,0.1,0.1,0.2,0.2,0.3s0.3,0.2,0.6,0.3c0.3,0.1,0.6,0.2,1,0.4c0.4,0.1,0.9,0.3,1.6,0.4v1.3H126.8z"/>
	<path d="M161.2,44.5c-1.4,0.9-2.6,1.7-3.6,2.2c-1.1,0.5-1.8,0.8-2.3,0.8c-0.6,0-1-0.4-1.4-1.1c-0.4-0.7-0.6-1.7-0.6-3
		c-0.7,0.7-1.4,1.4-2.2,1.9c-0.7,0.5-1.4,0.9-2.1,1.3c-0.7,0.3-1.3,0.6-2,0.7c-0.6,0.1-1.2,0.2-1.7,0.2c-0.6,0-1.2-0.1-1.8-0.3
		c-0.6-0.2-1.2-0.5-1.7-0.9c-0.5-0.4-0.9-1-1.2-1.7c-0.3-0.7-0.5-1.5-0.5-2.4c0-1.2,0.2-2.1,0.6-2.9c0.4-0.8,0.9-1.5,1.5-2.1
		c0.4-0.4,0.8-0.8,1.3-1.1c0.5-0.4,1.1-0.7,1.9-1c0.8-0.3,1.8-0.6,3.1-0.9c1.2-0.3,2.8-0.6,4.7-0.9V30c0-0.5-0.1-1-0.2-1.5
		c-0.1-0.5-0.3-0.8-0.6-1.2c-0.3-0.3-0.7-0.6-1.1-0.8c-0.5-0.2-1.1-0.3-1.8-0.3c-0.5,0-0.9,0.1-1.4,0.2s-0.8,0.4-1.2,0.6
		c-0.4,0.3-0.6,0.6-0.8,1c-0.2,0.4-0.3,0.8-0.2,1.3c0,0.1-0.1,0.2-0.3,0.3c-0.2,0.1-0.5,0.3-0.8,0.4c-0.3,0.1-0.7,0.2-1,0.4
		s-0.7,0.2-1.1,0.3c-0.4,0.1-0.7,0.1-1,0.2c-0.3,0-0.5,0-0.6,0l-0.4-1.1c0.4-0.8,0.9-1.7,1.7-2.4c0.8-0.8,1.7-1.4,2.7-2
		c1-0.6,2.1-1,3.2-1.4s2.3-0.5,3.4-0.5c1.9,0,3.3,0.5,4.3,1.5c1,1,1.5,2.3,1.5,3.9v12.8c0,0.7,0.1,1.1,0.3,1.4s0.4,0.4,0.7,0.4
		c0.2,0,0.5,0,0.8-0.1c0.3-0.1,0.8-0.3,1.5-0.5L161.2,44.5z M147.2,43.9c0.8,0,1.7-0.2,2.7-0.7c1-0.4,2.1-1.2,3.3-2.2v-5.9
		c-1.2,0.2-2.2,0.4-3,0.6c-0.8,0.2-1.5,0.4-2,0.6s-0.9,0.4-1.3,0.6c-0.3,0.2-0.6,0.5-0.8,0.7c-0.4,0.4-0.8,0.9-1,1.4
		c-0.3,0.5-0.4,1.1-0.4,1.9c0,0.6,0.1,1.1,0.3,1.5s0.4,0.7,0.6,0.9c0.3,0.2,0.5,0.4,0.8,0.5S147,43.9,147.2,43.9z"/>
	<path d="M184.8,34.8c0,0.9-0.1,1.9-0.4,2.9c-0.3,1-0.7,1.9-1.2,2.9c-0.5,0.9-1.1,1.8-1.8,2.7c-0.7,0.8-1.5,1.6-2.4,2.2
		c-0.9,0.6-1.8,1.1-2.8,1.5c-1,0.4-2.1,0.5-3.2,0.5c-0.4,0-0.8-0.1-1.4-0.2c-0.6-0.1-1.2-0.3-1.9-0.6c-0.7-0.3-1.5-0.6-2.3-0.9
		c-0.8-0.4-1.7-0.8-2.5-1.2V15.9c0-0.7,0-1.3-0.1-1.7c-0.1-0.4-0.2-0.7-0.4-0.9c-0.2-0.2-0.5-0.3-0.9-0.4c-0.4-0.1-0.9-0.1-1.6-0.2
		v-1.2c1.2-0.3,2.3-0.5,3.3-0.8c1-0.3,2.1-0.6,3.1-1.1l0.2,0.2c0.1,0.1,0.2,0.2,0.3,0.3c0.1,0.1,0.2,0.2,0.4,0.3v18.2
		c0.8-0.9,1.6-1.6,2.4-2.2c0.8-0.6,1.5-1.1,2.3-1.6c0.7-0.4,1.4-0.7,2-0.9s1.2-0.3,1.6-0.3c1.1,0,2.1,0.3,3.1,0.8s1.7,1.2,2.4,2.2
		c0.7,1,1.2,2.1,1.5,3.5C184.6,31.5,184.8,33.1,184.8,34.8z M180.9,36.8c0-1.6-0.2-3-0.5-4.2c-0.3-1.2-0.7-2.2-1.3-3
		c-0.5-0.8-1.1-1.4-1.8-1.8c-0.7-0.4-1.4-0.6-2.2-0.6c-0.3,0-0.6,0.1-1.1,0.2c-0.4,0.1-0.9,0.4-1.5,0.7c-0.5,0.3-1.1,0.8-1.7,1.3
		c-0.6,0.6-1.2,1.2-1.9,2.1v10.2c0.6,0.4,1.3,0.8,1.9,1.1s1.2,0.5,1.8,0.7c0.6,0.2,1.1,0.3,1.5,0.4c0.4,0.1,0.8,0.1,1.1,0.1
		c0.9,0,1.7-0.2,2.4-0.6c0.7-0.4,1.3-0.9,1.7-1.6s0.8-1.4,1.1-2.3C180.8,38.7,180.9,37.8,180.9,36.8z"/>
	<path d="M188.5,46.7v-1.3c1.1-0.2,1.9-0.5,2.5-0.7c0.6-0.3,0.8-0.5,0.8-0.7V30.8c0-0.8,0-1.5,0-2c0-0.5-0.1-0.9-0.3-1.2
		c-0.2-0.3-0.5-0.5-1-0.6c-0.4-0.1-1.1-0.2-1.9-0.3v-1.2c1.1-0.2,2.3-0.4,3.4-0.8c1.2-0.3,2.2-0.7,3.1-1.1h1.1V44
		c0,0.2,0.3,0.4,0.8,0.7c0.5,0.3,1.4,0.5,2.5,0.8v1.3H188.5z M196.9,16.5c0,0.5-0.1,0.9-0.3,1.3c-0.2,0.4-0.4,0.8-0.7,1.1
		s-0.6,0.5-1,0.7s-0.8,0.3-1.3,0.3c-0.8,0-1.4-0.2-1.8-0.6c-0.4-0.4-0.6-1-0.6-1.8c0-0.5,0.1-0.9,0.3-1.3c0.2-0.4,0.4-0.8,0.7-1.1
		s0.6-0.5,1-0.7c0.4-0.2,0.8-0.3,1.2-0.3c0.7,0,1.3,0.2,1.8,0.6S196.9,15.7,196.9,16.5z"/>
	<path d="M220.9,40.1c0,0.5,0,1.1,0,1.7s0,1.3-0.1,1.9c0,0.6-0.1,1.2-0.1,1.7c0,0.5-0.1,0.9-0.1,1.2h-17.7l-0.6-1.1l13.1-18.8h-7.6
		c-0.3,0-0.6,0.1-0.9,0.2s-0.6,0.3-0.8,0.7c-0.3,0.3-0.5,0.7-0.7,1.3s-0.4,1.2-0.6,2l-1.3-0.4l0.5-6.5c0.4,0.1,0.7,0.2,1,0.2
		s0.6,0.1,0.9,0.1c0.3,0,0.7,0,1,0h13.7l0.5,1l-13.1,18.8h9.5c0.5,0,0.9-0.4,1.2-1.1c0.3-0.7,0.7-1.9,1.1-3.4L220.9,40.1z"/>
</g>
<g transform="translate(0 3)">
	<g>
		<g class="st1">
			<g>
				<path class="st2" d="M43.2,31.4c-0.3,0.5-0.6,1.1-0.9,1.6c-0.3,0.5-0.6,1-1,1.4c-0.4,0.4-0.8,0.7-1.3,0.9l-0.1,0l0,0.1
					c0,0.1,0,0.2,0,0.3c0,0.1,0,0.2,0.1,0.2c0,0.1,0,0.1,0.1,0.2c-0.3,0.2-0.7,0.4-1.1,0.6c-0.4,0.2-0.9,0.3-1.4,0.2l-0.4,0l0.1,0.3
					c0,0.1,0.1,0.2,0.1,0.3l0,0.1c-0.6,0.2-1.1,0.3-1.7,0.4c-0.7,0.1-1.3,0.1-2,0l-0.3,0l0.1,0.3c0,0.1,0.1,0.2,0.1,0.3
					c-0.5,0-1-0.1-1.5-0.1c-0.6-0.1-1.2-0.3-1.8-0.5l-0.4-0.2l0,0.4c0,0.2,0,0.3,0.1,0.5l0,0.1c-0.8-0.2-1.5-0.5-2.3-0.8
					c-0.3-0.1-0.6-0.2-0.9-0.3c-0.2-0.1-0.3-0.1-0.5-0.2c-0.4-0.2-0.8-0.4-1.2-0.6c0.4,0.3,0.8,0.5,1.2,0.7c0.2,0.2,0.4,0.3,0.6,0.5
					c0,0-0.1,0-0.1,0.1l-0.3,0.2l0.3,0.1c0.3,0.1,0.5,0.2,0.7,0.4l-0.7,0.2l0.7,0.3c0.6,0.3,1.1,0.6,1.6,1.1c-0.1,0-0.2,0.1-0.3,0.1
					l-0.5,0.2l0.4,0.2c0.5,0.3,1,0.7,1.4,1.2l-0.3-0.1L29.3,42l0.4,0.5c0.7,1,1,2.2,0.9,3.3c-0.7-0.2-1.4-0.5-2-0.9
					c-0.7-0.5-1.3-1.1-1.8-1.7L26.6,43l-0.2,0.3c0,0.1-0.1,0.1-0.1,0.2c0,0.1,0,0.1-0.1,0.2c-0.5-0.6-0.8-1.2-1-2l-0.1-0.5l-0.3,0.4
					l-0.1,0.1c-0.1-0.3-0.2-0.5-0.3-0.8c-0.1-0.4-0.2-0.8-0.2-1.2l-0.1-0.6l-0.4,0.4v0c-0.2-0.6-0.4-1.3-0.4-2
					c-0.1,0.8,0,1.7,0.2,2.5l0.1,0.5l0.2-0.2c0,0.1,0,0.2,0,0.3c0,0.2,0,0.4,0,0.6c0,0.4,0,0.9,0,1.3c0,0.8,0.1,1.6,0.1,2.4
					c0.1,1.3,0.6,2.6,1.4,3.7l0,0c0,0,0,0,0,0.1c0,0.1,0,0.1,0,0.2c0,0.1-0.1,0.2-0.2,0.3c-0.1,0.1-0.3,0.2-0.4,0.3
					c-0.2,0.2-1.4,0.8-1.8,0.5c0,0,0,0,0,0c0.1,0,0.2-0.1,0.1-0.2c0,0,0,0,0,0c-0.6-1.8-0.7-3.7-0.5-5.6c0.3-1.8,0.4-3.7,0.1-5.5
					c0-0.4,0-0.8,0-1.1c-0.1,0.7-0.2,1.3-0.4,2v0l-0.4-0.4l-0.1,0.6c0,0.4-0.1,0.8-0.2,1.2c-0.1,0.3-0.2,0.5-0.3,0.8l-0.1-0.1
					L21,41.2l-0.1,0.5c-0.2,0.7-0.5,1.4-1,2c0-0.1,0-0.1-0.1-0.2c0-0.1-0.1-0.2-0.1-0.2L19.5,43l-0.2,0.3c-0.5,0.7-1.1,1.3-1.8,1.7
					c-0.6,0.4-1.3,0.7-2,0.9c-0.1-1.2,0.2-2.4,0.9-3.3l0.4-0.5l-0.6,0.2l-0.3,0.1c0.4-0.5,0.8-0.9,1.4-1.2l0.4-0.2l-0.5-0.2
					c-0.1,0-0.2-0.1-0.3-0.1c0.4-0.5,1-0.8,1.6-1.1l0.7-0.3l-0.7-0.2c0.2-0.2,0.5-0.3,0.7-0.4l0.3-0.1l-0.3-0.2c0,0-0.1-0.1-0.1-0.1
					c0.2-0.2,0.4-0.3,0.6-0.5c0.4-0.2,0.8-0.4,1.2-0.7c-0.4,0.2-0.8,0.4-1.2,0.6c-0.2,0.1-0.3,0.1-0.5,0.2c-0.3,0.1-0.6,0.2-0.9,0.3
					c-0.7,0.3-1.5,0.5-2.3,0.8l0-0.1c0-0.2,0.1-0.3,0.1-0.5l0-0.4l-0.4,0.2c-0.6,0.2-1.2,0.4-1.8,0.5c-0.5,0.1-1,0.1-1.5,0.1
					c0-0.1,0.1-0.2,0.1-0.3l0.1-0.3l-0.3,0c-0.7,0.1-1.3,0.1-2,0c-0.6-0.1-1.2-0.2-1.7-0.4l0-0.1c0-0.1,0.1-0.2,0.1-0.3L8.9,37
					l-0.4,0c-0.5,0-0.9-0.1-1.4-0.2c-0.4-0.1-0.7-0.3-1.1-0.6c0,0,0-0.1,0.1-0.2c0-0.1,0-0.2,0.1-0.2c0-0.1,0-0.2,0-0.3l0-0.1
					l-0.1,0c-0.5-0.2-1-0.5-1.3-0.9C4.3,34,4,33.5,3.7,33c-0.3-0.5-0.6-1.1-0.9-1.6c-0.2-0.4-0.5-0.7-0.7-1c0.3,0,0.5,0.2,0.8,0.3
					c0.4,0.3,0.8,0.6,1,1c0.2,0.2,0.3,0.4,0.5,0.6c0.2,0.2,0.4,0.4,0.6,0.6c0.2,0.2,0.5,0.3,0.7,0.4c0.3,0.1,0.6,0.2,0.9,0.2l0.4,0
					l-0.1-0.3c0-0.1,0-0.1,0-0.2c0-0.1,0-0.1,0-0.2c0,0,0-0.1,0-0.2c1.1,0,2.2,0.5,3,1.3l0.5,0.5l-0.1-0.8c0-0.1,0-0.2,0-0.3v0
					c0.5,0.1,1.1,0.4,1.6,0.6l0.5,0.3l-0.1-0.6c0-0.1,0-0.2,0-0.3c0.5,0.1,0.9,0.3,1.3,0.5c0.5,0.3,1,0.6,1.5,1l0.4,0.3l0.1-0.5
					c0-0.1,0-0.2,0-0.3c0.4,0.1,0.9,0.3,1.3,0.5c0.5,0.2,1.1,0.5,1.6,0.7l0.4,0.2l0-0.4c0-0.1,0-0.3,0-0.4v0c0.2,0,0.5,0.1,0.7,0.1
					c0.4,0.1,0.7,0.2,1,0.4c-0.2-0.2-0.5-0.4-0.7-0.5l-0.2-0.1c-0.1-0.1-0.2-0.2-0.3-0.2c-0.2-0.2-0.4-0.3-0.6-0.5
					c-0.2-0.1-0.4-0.3-0.6-0.4c-0.4-0.2-0.9-0.5-1.3-0.7c-0.4-0.2-0.7-0.4-1.1-0.6l0,0c0-0.1,0-0.1,0.1-0.2l0.2-0.4l-0.5-0.1
					c-0.6-0.1-1.2-0.2-1.8-0.5c-0.5-0.2-0.9-0.4-1.3-0.7c0.1,0,0.1-0.1,0.2-0.1l0.8-0.3l-0.8-0.3c-0.5-0.2-1-0.5-1.4-0.8
					c-0.3-0.2-0.6-0.5-0.9-0.8c0.2-0.1,0.5-0.1,0.7-0.2l1-0.3l-1-0.3c-0.7-0.2-1.3-0.5-2-0.9c-0.5-0.3-0.9-0.7-1.3-1.2l0,0
					C7.9,25.1,8,25.1,8.1,25l0.5-0.2l-0.5-0.3C7.6,24,7,23.6,6.6,23l0,0C6.8,23,7,22.9,7.2,22.8l0.4-0.2l-0.3-0.3
					c-0.5-0.4-0.9-0.9-1.3-1.5c-0.3-0.4-0.5-0.8-0.8-1.3c0.1,0,0.1,0,0.2-0.1s0.1,0,0.2-0.1l0.6-0.2l-0.6-0.4
					c-0.8-0.5-1.4-1.2-1.7-2.1c-0.1-0.3-0.2-0.7-0.3-1c0.1,0.1,0.2,0.2,0.2,0.3c0.4,0.4,0.8,0.7,1.3,0.9c0.4,0.2,0.9,0.4,1.3,0.7
					c0.4,0.2,0.7,0.5,1,0.9l0.5,0.7L8,18.3c0-0.2,0-0.4,0.1-0.6c0.3,0.3,0.5,0.5,0.7,0.8c0.4,0.4,0.7,0.9,1,1.4l0.3,0.6l0.2-0.6
					c0.1-0.2,0.1-0.5,0.1-0.7c0.2,0.2,0.4,0.5,0.6,0.7c0.3,0.5,0.6,0.9,0.7,1.5l0.3,1l0.2-1.1c0.1-0.3,0.1-0.6,0.2-0.9
					c0.2,0.3,0.4,0.6,0.5,1c0.3,0.5,0.5,1.1,0.7,1.6l0.3,0.7l0.2-0.7c0.1-0.2,0.1-0.4,0.2-0.6c0-0.1,0.1-0.1,0.1-0.2
					c0.3,0.4,0.6,0.9,0.8,1.3c0.3,0.6,0.5,1.3,0.6,1.9l0.2,0.8l0.3-0.8c0.1-0.2,0.2-0.4,0.3-0.7c0-0.1,0-0.1,0.1-0.2
					c0.3,0.4,0.6,0.9,0.8,1.4c0.3,0.6,0.5,1.3,0.5,2l0.1,1.2l0.4-1.2c0.1-0.2,0.1-0.4,0.2-0.5l0.1-0.2c0.1,0.2,0.3,0.3,0.4,0.5
					c0.2,0.3,0.4,0.6,0.5,0.9c0.2,0.3,0.3,0.6,0.4,1c0.1,0.3,0.2,0.7,0.3,1l0,0.3l0.2-0.2c0.1-0.1,0.1-0.1,0.2-0.2
					c0.1,0.1,0.2,0.3,0.3,0.4c0.1,0.2,0.3,0.4,0.4,0.6c0.1,0.2,0.2,0.4,0.4,0.6l0,0.1c0.3,0.5,0.5,1,0.8,1.4c-0.3-0.7-0.7-1.3-1-2
					c-0.3-0.7-0.6-1.4-0.9-2.1s-0.5-1.4-0.8-2.1c-0.2-0.6-0.4-1.2-0.5-1.9l0.9,0.1l0.4,0l-0.2-0.4c-0.2-0.4-0.4-0.9-0.6-1.3
					c-0.2-0.4-0.3-0.9-0.5-1.3c-0.3-0.7-0.5-1.5-0.7-2.3l0.1,0c0.1,0,0.2,0.1,0.3,0.1c0.1,0,0.2,0.1,0.3,0.1l0.5,0.1L20,20.4
					c-0.2-0.3-0.3-0.7-0.4-1.1c-0.1-0.4-0.2-0.7-0.3-1.1c-0.1-0.4-0.2-0.7-0.2-1.1c0-0.2-0.1-0.5-0.1-0.7c0.2,0.1,0.4,0.2,0.6,0.4
					l0.6,0.4l-0.2-0.6c-0.3-0.9-0.5-1.9-0.6-2.9c-0.1-0.8-0.1-1.6,0-2.5c0,0,0.1,0.1,0.1,0.1c0.2,0.2,0.3,0.3,0.5,0.5l0.4,0.3
					l-0.1-0.5C20.1,11,20,10.5,20,10c0-0.5,0-1,0-1.5c0-0.8,0.2-1.6,0.3-2.5l0,0c0.1,0.1,0.1,0.1,0.2,0.2c0.1,0.1,0.2,0.1,0.3,0.1
					l0.2,0.1l0-0.3l0,0c0.1-0.4,0.2-0.9,0.4-1.3c0.2-0.4,0.3-0.8,0.5-1.2s0.4-0.8,0.6-1.2C22.8,2.4,22.9,2.2,23,2l0,0
					c0.1,0.2,0.2,0.4,0.3,0.6c0.2,0.4,0.4,0.8,0.6,1.2c0.2,0.4,0.4,0.8,0.5,1.2c0.2,0.4,0.3,0.8,0.4,1.3l0,0.3l0.2-0.1l0,0
					c0.1,0,0.2-0.1,0.3-0.1c0.1-0.1,0.2-0.1,0.2-0.2l0,0c0.2,0.8,0.3,1.6,0.3,2.5c0,1,0,2-0.1,3L25.8,12l0.4-0.3
					c0.1-0.1,0.2-0.2,0.3-0.3c0.1-0.1,0.2-0.2,0.3-0.3c0,0,0.1-0.1,0.1-0.1c0.1,0.8,0,1.7-0.1,2.5c-0.1,1-0.3,2-0.7,3L26,17.2
					l0.6-0.4c0.2-0.1,0.4-0.2,0.6-0.4c0,0.6-0.1,1.2-0.3,1.8c-0.2,0.7-0.4,1.5-0.8,2.2l-0.2,0.4l0.4-0.1c0.1,0,0.2-0.1,0.3-0.1
					c0.1,0,0.2-0.1,0.3-0.1l0.2-0.1c-0.2,0.8-0.4,1.6-0.7,2.4c-0.3,0.9-0.7,1.8-1.1,2.6l-0.2,0.4l0.4,0l0.9-0.1
					c-0.1,0.6-0.3,1.2-0.5,1.8c-0.2,0.7-0.5,1.4-0.8,2.1s-0.6,1.4-0.9,2.1c-0.3,0.7-0.6,1.4-1,2c0.3-0.4,0.5-0.9,0.7-1.3l0.1-0.2
					c0.1-0.2,0.2-0.4,0.4-0.6s0.2-0.4,0.4-0.6c0.1-0.1,0.2-0.3,0.3-0.4c0,0.1,0.1,0.1,0.2,0.2l0.2,0.2l0-0.3c0.1-0.3,0.2-0.7,0.3-1
					c0.1-0.3,0.3-0.6,0.4-1c0.2-0.3,0.3-0.6,0.5-0.9c0.1-0.2,0.3-0.4,0.4-0.5l0.1,0.2c0.1,0.2,0.1,0.4,0.2,0.5l0.4,1.2l0.1-1.2
					c0.1-0.7,0.2-1.4,0.5-2c0.2-0.5,0.5-0.9,0.8-1.4c0,0.1,0,0.1,0.1,0.2c0.1,0.2,0.2,0.4,0.3,0.7l0.3,0.8l0.2-0.8
					c0.1-0.7,0.3-1.3,0.6-1.9c0.2-0.5,0.5-0.9,0.8-1.3c0,0.1,0.1,0.1,0.1,0.2c0.1,0.2,0.2,0.4,0.2,0.6l0.2,0.7l0.3-0.7
					c0.2-0.6,0.4-1.1,0.7-1.6c0.2-0.3,0.3-0.7,0.5-1c0.1,0.3,0.1,0.6,0.2,0.9l0.2,1.1l0.3-1c0.2-0.5,0.4-1,0.7-1.5
					c0.2-0.3,0.4-0.5,0.6-0.7c0,0.2,0,0.5,0.1,0.7l0.2,0.6l0.3-0.6c0.3-0.5,0.6-0.9,1-1.4c0.2-0.3,0.5-0.6,0.7-0.8
					c0,0.2,0.1,0.4,0.1,0.6l0.1,0.8l0.5-0.7c0.3-0.4,0.6-0.7,1-0.9c0.4-0.2,0.8-0.5,1.3-0.7c0.5-0.2,0.9-0.5,1.3-0.9
					c0.1-0.1,0.2-0.2,0.2-0.3c0,0.4-0.1,0.7-0.3,1c-0.4,0.8-1,1.6-1.7,2.1l-0.6,0.4l0.6,0.2c0,0,0.1,0,0.2,0.1s0.1,0,0.2,0.1
					c-0.2,0.5-0.5,0.9-0.8,1.3c-0.4,0.5-0.8,1-1.3,1.5l-0.3,0.3l0.4,0.2c0.2,0.1,0.4,0.2,0.6,0.2l0,0c-0.5,0.5-1,1-1.6,1.4l-0.5,0.3
					l0.5,0.2c0.1,0,0.2,0.1,0.3,0.2l0,0c-0.4,0.5-0.8,0.8-1.3,1.2c-0.6,0.4-1.3,0.7-2,0.9l-1,0.3l1,0.3c0.2,0.1,0.5,0.1,0.7,0.2
					c-0.3,0.3-0.5,0.6-0.9,0.8c-0.4,0.3-0.9,0.6-1.4,0.8L32.6,30l0.8,0.3c0.1,0,0.1,0,0.2,0.1c-0.4,0.3-0.8,0.5-1.3,0.7
					c-0.6,0.3-1.2,0.4-1.8,0.5L30,31.6l0.2,0.4c0,0.1,0,0.1,0.1,0.2l0,0c-0.4,0.2-0.7,0.4-1.1,0.6c-0.4,0.2-0.9,0.5-1.3,0.7
					c-0.2,0.1-0.4,0.2-0.6,0.4c-0.2,0.1-0.4,0.3-0.6,0.5c-0.1,0.1-0.2,0.2-0.3,0.2l-0.2,0.1c-0.3,0.1-0.5,0.3-0.7,0.5
					c0.3-0.2,0.7-0.3,1-0.4c0.2,0,0.5-0.1,0.7-0.1c0,0,0,0,0,0c0,0.1,0,0.2,0,0.4l0,0.4l0.4-0.2c0.5-0.3,1.1-0.5,1.6-0.7
					c0.4-0.2,0.9-0.3,1.3-0.5c0,0.1,0,0.2,0,0.3l0.1,0.5l0.4-0.3c0.5-0.4,1-0.7,1.5-1c0.4-0.2,0.9-0.4,1.3-0.5c0,0.1,0,0.2,0,0.3
					l-0.1,0.6l0.5-0.3c0.5-0.3,1-0.5,1.6-0.6v0c0,0.1,0,0.2,0,0.3l-0.1,0.8l0.5-0.5c0.8-0.8,1.9-1.2,3-1.3c0,0.1,0,0.1,0,0.2
					c0,0.1,0,0.2,0,0.2c0,0.1,0,0.1,0,0.2L39,33.5l0.4,0c0.3,0,0.6-0.1,0.9-0.2c0.3-0.1,0.5-0.3,0.7-0.4c0.2-0.2,0.4-0.4,0.6-0.6
					c0.2-0.2,0.3-0.4,0.5-0.6c0.3-0.4,0.6-0.7,1-1c0.2-0.2,0.5-0.3,0.8-0.3C43.6,30.7,43.4,31,43.2,31.4"/>
			</g>
			<g>
				<path class="st3" d="M14.1,24.1c-0.2,0.9-0.1,1.8,0.4,2.6C14.6,25.8,14.5,24.9,14.1,24.1"/>
			</g>
			<g>
				<path class="st3" d="M16,26.5c-0.2,0.9,0,1.8,0.5,2.5C16.6,28.1,16.5,27.2,16,26.5"/>
			</g>
			<g>
				<path class="st3" d="M17.5,27.6c0,1,0.3,1.9,0.9,2.7C18.2,29.3,18,28.4,17.5,27.6"/>
			</g>
			<g>
				<path class="st3" d="M19.6,29.8c0,1,0.4,2,1.1,2.7C20.7,31.5,20.3,30.6,19.6,29.8"/>
			</g>
			<g>
				<path class="st3" d="M14.1,30.8c0.5,0.5,1.2,0.6,1.9,0.5C15.5,31,14.8,30.8,14.1,30.8"/>
			</g>
			<g>
				<path class="st3" d="M13,29.4c0.7,0.3,1.5,0.5,2.3,0.3C14.6,29.4,13.8,29.2,13,29.4"/>
			</g>
			<g>
				<path class="st3" d="M9.7,26.2c0.9,0.6,1.9,1,3,1C11.8,26.7,10.7,26.3,9.7,26.2"/>
			</g>
			<g>
				<path class="st3" d="M7.8,23.7c0.6,0.6,1.5,0.9,2.4,0.7C9.4,24.1,8.6,23.8,7.8,23.7"/>
			</g>
			<g>
				<path class="st3" d="M6.7,21.2c0.5,0.7,1.3,1.2,2.2,1.4C8.2,22,7.5,21.5,6.7,21.2"/>
			</g>
			<g>
				<path class="st3" d="M6,19.2c-0.8-0.7-1.4-1.5-1.9-2.4c1.3,0.6,2.5,1.3,3.7,2c-0.5-0.9-1.2-1.7-2.1-2.2
					c-0.9-0.4-1.6-1.1-2.2-1.9C3.2,16.6,4.2,18.5,6,19.2"/>
			</g>
			<g>
				<path class="st3" d="M7.9,33.5c0.6,0.9,1.5,1.6,2.6,2C9.9,34.5,9,33.8,7.9,33.5"/>
			</g>
			<g>
				<path class="st3" d="M6,33.8c0.4,0.6,1,1,1.7,1.2C7.3,34.4,6.7,34,6,33.8"/>
			</g>
			<g>
				<path class="st3" d="M3.3,32.3c-0.2-0.4-0.4-0.8-0.5-1.2c0.7,0.3,1.1,1.1,1.6,1.6C5,33,5.6,33.2,6.2,33.1C5.6,33,5,32.6,4.6,32
					c-0.4-0.5-0.8-1-1.3-1.4c-0.4-0.3-0.9-0.4-1.5-0.4C2.4,31,3,31.8,3.5,32.7C3.4,32.5,3.4,32.4,3.3,32.3"/>
			</g>
			<g>
				<path class="st3" d="M15.9,34.7c0.4,0.5,0.9,0.9,1.6,0.9C17,35.2,16.5,34.9,15.9,34.7"/>
			</g>
			<g>
				<path class="st3" d="M19.1,33.7c0.1,0.3,0.4,0.5,0.7,0.6c0.4,0.2,0.9,0.3,1.3,0.5C20.5,34.2,19.8,33.9,19.1,33.7"/>
			</g>
			<g>
				<path class="st3" d="M22.7,34.7c0-0.1,0-0.2-0.1-0.2l-0.1-0.1c-0.1-0.1-0.1-0.1-0.2-0.2c-0.3-0.7-0.7-1.3-1.2-1.8
					c0,0.3,0.1,0.7,0.2,1c-0.4-0.4-0.9-0.8-1.3-1.2c-0.9-0.8-1.8-1.7-2.7-2.5c-0.9-0.8-1.7-1.7-2.6-2.6c-0.7-0.7-1.3-1.4-2-2.1
					c-0.1-0.8-0.3-1.6-0.8-2.2c0,0.6,0.1,1.2,0.4,1.8l-0.1-0.1c-0.5-0.5-1-1-1.5-1.5c-0.1-0.9-0.4-1.7-0.9-2.4
					c0.1,0.8,0.3,1.5,0.7,2.2l-0.2-0.2c-0.2-0.2-0.3-0.4-0.5-0.6c-0.5-0.6-1-1.3-1.6-1.8c-0.6-0.6-1.2-1.1-1.8-1.5l0,0
					c0.6,0.5,1.2,1.1,1.7,1.7c0.4,0.6,0.8,1.2,1.3,1.8c0.9,1.2,1.8,2.3,2.8,3.5c2,2.3,4.1,4.4,6.4,6.4c1.3,1.1,2.6,2.1,4,3.1
					c0.1,0.1,0.2,0.1,0.3,0c0,0,0,0,0,0C22.6,34.8,22.7,34.7,22.7,34.7"/>
			</g>
			<g>
				<path class="st3" d="M16.7,31.6c-0.3,0-0.5,0.1-0.6,0.4c0.5,0,1,0,1.6-0.1C17.3,31.7,17,31.6,16.7,31.6"/>
			</g>
			<g>
				<path class="st3" d="M20.6,27.7c0.1,1.5,0.7,3,1.8,4.1C22.6,30.2,21.9,28.6,20.6,27.7"/>
			</g>
			<g>
				<path class="st3" d="M20.3,23.3c0.2,1.4,0.8,2.7,1.8,3.7C21.9,25.6,21.3,24.3,20.3,23.3"/>
			</g>
			<g>
				<path class="st3" d="M20.2,19.7c0.3,1.4,1,2.7,2,3.7C22,22,21.3,20.7,20.2,19.7"/>
			</g>
			<g>
				<path class="st3" d="M20,14.5c0,1.7,0.7,3.3,2.1,4.3C21.8,17.2,21.1,15.7,20,14.5"/>
			</g>
			<g>
				<path class="st3" d="M20.4,9.9c-0.1,1.9,0.6,3.7,1.9,5.1C22.2,13.1,21.5,11.3,20.4,9.9"/>
			</g>
			<g>
				<path class="st3" d="M22.6,3.9c-0.8,1.4-1.2,2.9-1.1,4.5c0.1,0.8,0.5,1.5,1,2C22.6,8.3,22.7,6.1,22.6,3.9"/>
			</g>
			<g>
				<path class="st3" d="M25,10.9c-0.8,1.3-1.2,2.8-1.2,4.3C24.9,14.1,25.4,12.4,25,10.9"/>
			</g>
			<g>
				<path class="st3" d="M24.4,6.7c-0.5,1.1-0.7,2.4-0.5,3.7C24.6,9.3,24.7,7.9,24.4,6.7"/>
			</g>
			<g>
				<path class="st3" d="M23.8,23.5c0-1.2,0.1-2.4,0.1-3.6c1.1-1.1,1.8-2.5,1.9-4c-1,0.8-1.7,1.9-1.9,3.2c0-3.1,0-6.2-0.1-9.4
					c-0.1-2.1-0.4-4.2-0.5-6.3c0,0,0,0,0,0c0.1,1.8,0.1,3.7,0.1,5.5c0,1.5,0.1,3.1,0.1,4.6c-0.1,0-0.1,0.1-0.1,0.1
					c-0.1,1.4-0.1,2.9-0.1,4.3c0,1.4,0,2.9,0,4.3c0,1.7,0,3.5,0,5.2c-0.1,1.5-0.1,2.9-0.2,4.3c0,0.3,0.4,0.3,0.5,0
					c0.2-2.4,0.3-4.8,0.3-7.2c1-1.1,1.6-2.6,1.5-4.1C24.5,21.4,24,22.4,23.8,23.5"/>
			</g>
			<g>
				<path class="st3" d="M24.9,24.8c-0.8,0.9-1.3,2.2-1.3,3.4C24.4,27.3,24.9,26.1,24.9,24.8"/>
			</g>
			<g>
				<path class="st3" d="M38.7,19.8c0.2-0.4,0.6-0.8,1-1.1c0.1-0.1,0.3-0.2,0.5-0.4c-0.2,0.1-0.4,0.1-0.6,0.2
					c-0.3,0.1-0.6,0.3-0.8,0.5c-0.6,0.5-1.1,1-1.6,1.6c-0.4,0.5-0.9,1-1.3,1.5c0-0.5-0.3-1-0.7-1.3c0.1,0.1,0,0.6,0,0.7
					c0,0.2-0.1,0.4-0.1,0.7c-0.1,0.5-0.3,1-0.5,1.5c-0.2,0.2-0.3,0.4-0.5,0.6c-0.2,0.2-0.4,0.4-0.5,0.6c0-0.6-0.1-1.2-0.4-1.8
					c-0.1,0.5-0.3,1-0.4,1.5c-0.1,0.4-0.2,0.9-0.3,1.3c0,0.1-0.1,0.2-0.1,0.3c-0.2,0.2-0.4,0.4-0.6,0.6c0-0.8-0.2-1.5-0.7-2.1
					c0,0.8-0.1,1.5-0.3,2.2c-0.1,0.4-0.2,0.8-0.3,1.2c-0.2,0.3-0.5,0.5-0.8,0.8c0-0.8-0.2-1.7-0.6-2.4c-0.1,1.2-0.3,2.5-0.7,3.6
					c-0.2,0.2-0.5,0.4-0.7,0.7c0-0.1,0-0.1,0-0.2c0-0.5-0.1-1.1-0.5-1.5c0,0.2-0.1,0.4-0.1,0.6c-0.1,0.2-0.1,0.4-0.2,0.7
					c-0.2,0.6-0.4,1.2-0.6,1.7c-0.4,0.3-0.8,0.7-1.2,1c-0.3,0.3-0.7,0.6-1.1,0.9c-0.4,0.2-0.8,0.3-1.2,0.4c0,0,0,0,0,0.1
					c0,0,0,0,0,0c0.5,0.4,1.2,0,1.6-0.3c0.4-0.3,0.9-0.7,1.3-1.1c0,0.1,0,0.2,0.1,0.2c0.1,0,0.3-0.3,0.4-0.3l0.5-0.4
					c0.3-0.2,0.5-0.5,0.7-0.8c0-0.1,0.1-0.2,0.1-0.3c0.2-0.1,0.3-0.3,0.5-0.5l0,0.1c0.6-0.3,1.2-0.8,1.6-1.3c0,0,0-0.1,0-0.1
					c0.3-0.3,0.6-0.5,0.8-0.8c0,0.1,0,0.1,0,0.2c0.4-0.3,0.7-0.7,0.9-1.1l0.2-0.2c0.2-0.2,0.3-0.3,0.5-0.5c0.1,0.2,0.4-0.1,0.6-0.3
					c0.2-0.3,0.4-0.5,0.5-0.8c0.1-0.1,0.2-0.2,0.3-0.4c0.2-0.2,0.4-0.5,0.7-0.7c0,0.1,0.1,0.2,0.3,0c0.3-0.3,0.6-0.6,0.8-1
					c0.3-0.4,0.4-0.8,0.5-1.2c0.4-0.4,0.7-0.8,1-1.2C37.5,21.1,38,20.4,38.7,19.8L38.7,19.8"/>
			</g>
			<g>
				<path class="st3" d="M34.2,28.9c-0.6,0.5-1.2,0.8-1.9,0.9c-0.7,0.2-1.4,0.2-2.1,0.3C31.3,29.3,32.7,28.9,34.2,28.9"/>
			</g>
			<g>
				<path class="st3" d="M36.6,25.8c-1,0.8-2.1,1.4-3.3,1.6c0.5-0.5,1-0.9,1.6-1.2c0.3-0.2,0.5-0.3,0.8-0.4
					C36,25.8,36.3,25.7,36.6,25.8"/>
			</g>
			<g>
				<path class="st3" d="M38.1,23.7c-0.7,0.7-1.7,1.2-2.7,1.4c0.4-0.3,0.8-0.7,1.3-0.9C37.1,23.9,37.6,23.7,38.1,23.7"/>
			</g>
			<g>
				<path class="st3" d="M38.2,20.9l1-0.6c0.3-0.1,0.5-0.4,0.6-0.6C39.1,19.7,38.4,20.2,38.2,20.9"/>
			</g>
			<g>
				<path class="st3" d="M42.6,15.1c-0.3,0.4-0.6,0.7-1,1c-0.4,0.3-0.8,0.5-1.2,0.7c-0.4,0.2-0.8,0.5-1.2,0.8
					c-0.4,0.3-0.8,0.8-0.9,1.4c0-0.2,0.2-0.4,0.4-0.5c0.5-0.3,1-0.5,1.5-0.6c0.5-0.1,1-0.4,1.5-0.8c-0.2,0.7-0.5,1.4-1,2
					C42,18.2,42.8,16.7,42.6,15.1"/>
			</g>
			<g>
				<path class="st3" d="M19.1,40.4c-0.5,0.1-1,0.3-1.3,0.7c0.3-0.1,0.6-0.1,0.8-0.3C18.8,40.8,19,40.6,19.1,40.4"/>
			</g>
			<g>
				<path class="st3" d="M19.9,39.1c-0.5,0.1-1,0.4-1.4,0.7C19,39.8,19.5,39.5,19.9,39.1"/>
			</g>
			<g>
				<path class="st3" d="M21.7,36.2c-0.3,0.3-0.5,0.6-0.6,1c-0.5,0.2-0.9,0.5-1.1,1c0.2,0,0.4,0,0.6-0.2c-0.1,0.1-0.1,0.2-0.2,0.3
					c-0.4,0.8-0.9,1.5-1.4,2.3c-0.4,0.6-0.7,1.1-1,1.7c0.1-0.2,0.1-0.4,0.2-0.6c-1.3,0.5-2.1,1.7-2.2,3.1c0.3-0.2,0.6-0.4,0.8-0.6
					c-0.2,0.3-0.4,0.6-0.6,1c-0.3,0.5,0,0,0,0c1.2-1.3,2.2-2.7,3.2-4.1c0.5-0.7,0.9-1.5,1.4-2.2c0.2-0.4,0.5-0.8,0.7-1.2
					c0.2-0.4,0.4-0.7,0.5-1.2c0-0.1,0-0.2-0.1-0.2C21.8,36.1,21.8,36.2,21.7,36.2"/>
			</g>
			<g>
				<path class="st3" d="M20.6,40.3c-0.6,0.9-0.9,1.9-0.9,3C20.4,42.4,20.7,41.3,20.6,40.3"/>
			</g>
			<g>
				<path class="st3" d="M23.6,41.2c-0.5,1.9-0.3,3.8,0.4,5.6c0.1,0.3,0.3,0.6,0.3,1c0.1,0.3,0,0.7-0.2,1c0.4-0.1,0.9-0.2,1.3-0.2
					c-0.8-1-1.3-2.2-1.4-3.5c-0.2-1.4,0.1-2.7-0.1-4.1C23.8,40.9,23.6,41,23.6,41.2"/>
			</g>
			<g>
				<path class="st3" d="M25.4,40.3c-0.2,1.1,0.1,2.2,0.8,3C26.3,42.3,26,41.2,25.4,40.3"/>
			</g>
			<g>
				<path class="st3" d="M24.5,39c-0.1,0.7-0.1,1.3,0.2,2C24.8,40.3,24.7,39.7,24.5,39"/>
			</g>
			<g>
				<path class="st3" d="M26.8,41.8c0,0.7,0.3,1.4,0.8,1.9C27.5,43,27.2,42.4,26.8,41.8"/>
			</g>
			<g>
				<path class="st3" d="M28,42c0.4,1.1,1.2,2.1,2.1,2.8C30,43.5,29.2,42.5,28,42"/>
			</g>
			<g>
				<path class="st3" d="M26.8,40.4c0.4,0.4,0.9,0.6,1.4,0.6C27.8,40.7,27.3,40.5,26.8,40.4"/>
			</g>
			<g>
				<path class="st3" d="M26,39.1c0,0.1,0,0.2,0.1,0.3c0.1,0.1,0.2,0.1,0.3,0.2c0.4,0.2,0.7,0.3,1.1,0.4l0-0.1
					C27.3,39.4,26.5,39.2,26,39.1"/>
			</g>
			<g>
				<path class="st3" d="M25.1,37.4c0.1,0.5,0.5,0.9,1,0.8C25.9,37.9,25.5,37.6,25.1,37.4"/>
			</g>
			<g>
				<path class="st3" d="M40.5,34.1c-0.3,0.1-0.5,0.2-0.8,0.3c-0.4,0.1-0.7,0.1-1.1,0.3c-0.7,0.2-1.4,0.4-2.1,0.5
					c-0.3,0.1-0.5,0.1-0.8,0.2c0.9-0.4,1.6-1,2.1-1.8c-1.1,0.4-2.1,1.1-2.8,2c-0.6,0.1-1.2,0.2-1.8,0.3c0.6-0.4,1-0.8,1.4-1.4
					c-0.9,0.2-1.8,0.7-2.3,1.5c-0.1,0-0.2,0-0.3,0c-0.4,0-0.9,0.1-1.3,0.1c0.6-0.3,1.1-0.8,1.5-1.3c-0.8,0.2-1.5,0.7-1.9,1.4
					c-0.9,0-1.8,0-2.8-0.1c-0.4,0-0.7-0.1-1.1-0.1c0.1,0,0.2-0.1,0.3-0.2c-0.4-0.1-0.8-0.1-1.2,0c-0.1,0-0.2,0-0.3-0.1
					c-0.4-0.1-0.9-0.3-1.1,0.3l0,0c0.1-0.1,0.2,0,0.3,0c0.2,0,0.3,0.1,0.5,0.1l0.2,0.1l-0.1,0c0,0,0,0,0,0c0,0,0,0,0,0
					c0.3,0.3,0.7,0.4,1.2,0.5c0.2,0,0.4,0.1,0.6,0.1c0.1,0,0.2,0.1,0.3,0.1c0.2,0,0.4,0.1,0.6,0.1c0.5,0,1,0.1,1.5,0.1
					c1,0,2,0,3-0.1c0.9-0.1,1.9-0.2,2.8-0.4c1-0.2,1.9-0.5,2.8-0.8c0,0,0,0,0-0.1c0.3-0.1,0.6-0.2,0.9-0.3c0.3-0.1,0.6-0.3,0.9-0.5
					c0.2-0.1,0.3-0.2,0.5-0.2C40.4,34.2,40.4,34.2,40.5,34.1"/>
			</g>
			<g>
				<path class="st3" d="M26.7,28.5c-0.7,0.8-1,1.9-1,2.9C26.5,30.7,26.8,29.6,26.7,28.5"/>
			</g>
			<g>
				<path class="st3" d="M25.2,31.5c-0.5,0.5-0.9,1.2-1,1.9c0.3-0.2,0.5-0.4,0.8-0.6c0.2-0.2,0.4-0.5,0.5-0.8c0-0.1,0-0.2,0-0.3
					C25.4,31.6,25.3,31.5,25.2,31.5"/>
			</g>
			<g>
				<path class="st3" d="M22.3,35.4c0-0.1-0.1-0.2-0.3-0.2c0,0,0,0,0,0c-0.6,0.1-1.1,0.3-1.7,0.4c-0.4-0.2-0.8-0.3-1.2-0.4
					c0,0.2,0.1,0.3,0.2,0.4c0.1,0,0.1,0.1,0.2,0.1c-1.4,0.2-2.8,0.3-4.1,0.3c-0.7-0.9-1.5-1.7-2.6-2.3c0.4,1,1.2,1.8,2.1,2.3
					c-0.2,0-0.3,0-0.5,0c-0.4,0-0.8,0-1.2-0.1c-0.7-0.8-1.5-1.5-2.4-2c0.5,0.9,1.4,1.6,2.3,2c-0.8-0.1-1.7-0.2-2.5-0.4l-0.2,0
					c-0.6-0.1-1.2-0.3-1.8-0.4c-0.3,0-0.5-0.1-0.8-0.1C7.6,35,7.3,34.9,7,34.8c0,0,0,0,0,0l0.2,0.1c-0.9-0.1-1.6-0.6-2.1-1.3l0,0
					c0.4,0.8,1.2,1.3,2,1.5c1.2,0.4,2.4,0.8,3.6,1.1c2.5,0.6,5,0.8,7.5,0.6c1.4-0.1,2.7-0.4,4-0.9C22.6,35.7,22.5,35.3,22.3,35.4"/>
			</g>
			<g>
				<g>
					<path class="st4" d="M23.3,33.8c0.3-0.7,0.7-1.3,1-2s0.6-1.4,0.9-2.1s0.5-1.4,0.8-2.1c0.2-0.7,0.4-1.4,0.6-2.1l0.2,0.3
						l-1.2,0.1l-0.4,0l0.2-0.4c0.4-0.9,0.8-1.8,1.1-2.6c0.3-0.9,0.6-1.8,0.8-2.7l0.3,0.3c-0.1,0-0.2,0-0.2,0.1
						c-0.1,0-0.2,0.1-0.3,0.1s-0.2,0.1-0.3,0.1c-0.1,0-0.2,0.1-0.3,0.1l-0.4,0.1l0.2-0.4c0.3-0.7,0.6-1.4,0.8-2.2
						c0.2-0.7,0.3-1.5,0.3-2.3l0.4,0.2c-0.3,0.2-0.6,0.4-0.9,0.6L26,17.2l0.2-0.6c0.3-1,0.5-2,0.7-3c0.1-1,0.1-2,0-3l0.4,0.1
						c-0.2,0.2-0.3,0.4-0.5,0.6c-0.1,0.1-0.2,0.2-0.3,0.3c-0.1,0.1-0.2,0.2-0.3,0.3L25.8,12l0.1-0.5c0.1-1,0.1-2,0.1-3
						c0-1-0.2-2-0.5-2.9l0.4,0c0,0.1-0.1,0.2-0.2,0.2c-0.1,0.1-0.1,0.1-0.2,0.2c-0.1,0.1-0.1,0.1-0.2,0.2c-0.1,0.1-0.2,0.1-0.3,0.1
						l0,0l-0.2,0.1l0-0.3c-0.1-0.4-0.2-0.9-0.4-1.3c-0.2-0.4-0.3-0.8-0.5-1.2S23.6,3,23.4,2.6C23.3,2.4,23.1,2.2,23,2
						c-0.1-0.1-0.1-0.2-0.2-0.3c0,0-0.1-0.1-0.1-0.1l0-0.1l0,0l0,0l0.6-0.1c-0.2,0.4-0.4,0.8-0.6,1.2s-0.4,0.8-0.6,1.2
						S21.7,4.6,21.6,5c-0.2,0.4-0.3,0.8-0.4,1.3l0,0l0,0.3l-0.2-0.1c-0.1,0-0.2-0.1-0.3-0.1c-0.1-0.1-0.2-0.1-0.2-0.2
						c-0.1-0.1-0.1-0.1-0.2-0.2c-0.1-0.1-0.1-0.2-0.2-0.2l0.4,0c-0.3,0.9-0.4,1.9-0.5,2.9c0,0.5,0,1,0,1.5s0.1,1,0.1,1.5l0.1,0.5
						l-0.4-0.3c-0.2-0.1-0.4-0.3-0.5-0.4c-0.2-0.2-0.3-0.3-0.5-0.5l0.4-0.1c-0.1,1-0.1,2,0,3c0.1,1,0.3,2,0.6,2.9l0.2,0.6l-0.6-0.4
						c-0.3-0.2-0.6-0.4-0.9-0.6l0.4-0.2c0,0.4,0,0.8,0.1,1.1c0.1,0.4,0.1,0.8,0.2,1.1c0.1,0.4,0.2,0.7,0.3,1.1
						c0.1,0.4,0.3,0.7,0.4,1.1l0.2,0.5l-0.5-0.1c-0.1,0-0.2-0.1-0.3-0.1c-0.1,0-0.2-0.1-0.3-0.1s-0.2-0.1-0.3-0.1
						c-0.1,0-0.2-0.1-0.2-0.1l0.3-0.3c0.2,0.9,0.4,1.8,0.8,2.7c0.2,0.5,0.3,0.9,0.5,1.3c0.2,0.4,0.4,0.9,0.6,1.3l0.2,0.4l-0.4,0
						l-1.2-0.1l0.2-0.2c0.1,0.7,0.3,1.4,0.6,2.1c0.2,0.7,0.5,1.4,0.8,2.1s0.6,1.4,0.9,2.1c0.3,0.7,0.6,1.4,1,2
						c-0.4-0.6-0.7-1.3-1.1-2s-0.7-1.3-1-2s-0.6-1.4-0.9-2.1c-0.3-0.7-0.5-1.4-0.7-2.2l-0.1-0.3l0.3,0l1.2,0.1l-0.2,0.3
						c-0.2-0.4-0.4-0.9-0.6-1.3s-0.4-0.9-0.5-1.4c-0.2-0.5-0.3-0.9-0.5-1.4c-0.1-0.5-0.3-0.9-0.3-1.4l-0.1-0.4l0.4,0.1
						c0.1,0,0.2,0.1,0.3,0.1c0.1,0,0.2,0.1,0.3,0.1s0.2,0.1,0.3,0.1c0.1,0,0.2,0.1,0.2,0.1l-0.3,0.4c-0.2-0.4-0.3-0.7-0.5-1.1
						c-0.1-0.4-0.2-0.8-0.3-1.2c-0.1-0.4-0.2-0.8-0.2-1.2c-0.1-0.4-0.1-0.8-0.1-1.2l0-0.4l0.4,0.2c0.3,0.2,0.6,0.4,0.9,0.6l-0.3,0.3
						c-0.3-1-0.5-2-0.6-3c-0.1-1-0.1-2,0-3.1l0.1-0.6l0.3,0.4c0.3,0.3,0.6,0.6,0.9,0.9l-0.4,0.2c-0.1-1-0.1-2-0.1-3c0-1,0.2-2,0.5-3
						l0.2-0.6l0.3,0.5c0,0.1,0.1,0.1,0.1,0.2c0,0.1,0.1,0.1,0.1,0.2c0,0.1,0.1,0.1,0.2,0.1C20.9,6,21,6,21.1,6l-0.3,0.2l0,0
						c0-0.2,0.1-0.5,0.1-0.7c0.1-0.2,0.1-0.5,0.2-0.7c0.1-0.4,0.3-0.9,0.5-1.3s0.4-0.9,0.5-1.3s0.4-0.8,0.6-1.2L23,0.5L23.3,1l0,0
						l0,0.1l0,0l0,0.1c0,0.1,0.1,0.1,0.1,0.2c0.1,0.1,0.1,0.2,0.2,0.3c0.1,0.2,0.2,0.4,0.3,0.6c0.2,0.4,0.4,0.8,0.5,1.3
						C24.7,4,24.8,4.4,25,4.9c0.1,0.4,0.2,0.9,0.3,1.4L25,6.1C25,6,25.1,6,25.1,6c0.1,0,0.1-0.1,0.2-0.1c0.1-0.1,0.1-0.1,0.1-0.2
						c0-0.1,0.1-0.1,0.1-0.2L25.8,5l0.2,0.6c0.3,1,0.4,2,0.5,3c0,1,0,2-0.1,3L26,11.4c0.1-0.1,0.2-0.1,0.3-0.2
						c0.1-0.1,0.2-0.2,0.2-0.3c0.2-0.2,0.3-0.4,0.5-0.6l0.3-0.5l0.1,0.6c0.1,1,0.1,2.1,0,3.2c-0.1,1-0.3,2.1-0.7,3.1l-0.3-0.3
						c0.3-0.2,0.6-0.4,0.9-0.6l0.4-0.2l0,0.4c0,0.8-0.1,1.6-0.3,2.4c-0.2,0.8-0.5,1.5-0.8,2.3l-0.2-0.3c0.1,0,0.2,0,0.2-0.1
						c0.1,0,0.2-0.1,0.3-0.1s0.2-0.1,0.3-0.1c0.1,0,0.2-0.1,0.3-0.1l0.3-0.1l-0.1,0.3c-0.2,1-0.5,1.9-0.8,2.8
						c-0.3,0.9-0.7,1.8-1.1,2.7l-0.2-0.3l1.2-0.1H27l-0.1,0.3c-0.2,0.7-0.4,1.5-0.7,2.2c-0.3,0.7-0.6,1.4-0.9,2.1s-0.6,1.4-1,2
						C24,32.5,23.7,33.1,23.3,33.8"/>
				</g>
				<g>
					<path class="st4" d="M22.3,32.9c-0.1-0.2-0.2-0.4-0.4-0.6s-0.2-0.4-0.4-0.6s-0.2-0.4-0.4-0.6s-0.3-0.4-0.4-0.6l0.2,0
						c0,0-0.1,0.1-0.1,0.1s-0.1,0.1-0.1,0.1L20.5,31l0-0.3c-0.1-0.3-0.2-0.7-0.3-1c-0.1-0.3-0.3-0.6-0.4-1c-0.3-0.6-0.7-1.2-1.2-1.7
						L19,27c-0.1,0.2-0.1,0.4-0.2,0.6s-0.1,0.4-0.2,0.5l-0.4,1.2L18.1,28c-0.1-0.7-0.2-1.4-0.5-2c-0.3-0.6-0.7-1.2-1.1-1.7l0.4-0.1
						c0,0.2-0.1,0.5-0.2,0.7c-0.1,0.2-0.2,0.4-0.3,0.7l-0.3,0.8L16,25.5c-0.1-0.7-0.3-1.3-0.6-1.9c-0.3-0.6-0.7-1.2-1.1-1.7l0.5-0.1
						c-0.1,0.2-0.2,0.5-0.3,0.7s-0.2,0.4-0.2,0.6L14,23.8L13.7,23c-0.2-0.6-0.4-1.1-0.7-1.6c-0.3-0.5-0.6-1-0.9-1.5l0.5-0.1
						c-0.1,0.5-0.2,1-0.3,1.5L12,22.4l-0.3-1c-0.2-0.5-0.4-1-0.7-1.5c-0.3-0.5-0.7-0.9-1.1-1.3l0.5-0.2c0,0.2,0,0.5,0,0.7
						c0,0.3,0,0.5-0.1,0.8l-0.2,0.6l-0.3-0.6c-0.3-0.5-0.6-0.9-1-1.4c-0.4-0.4-0.7-0.8-1.2-1.2l0.5-0.2c0,0.4-0.1,0.8-0.1,1.1
						l-0.1,0.8l-0.5-0.7c-0.3-0.4-0.6-0.7-1-0.9c-0.4-0.2-0.8-0.5-1.3-0.7c-0.5-0.2-0.9-0.5-1.3-0.9c-0.2-0.2-0.4-0.4-0.5-0.7
						c-0.1-0.3-0.2-0.5-0.2-0.8c0,0,0-0.1,0-0.1v0v0l0,0c0,0,0,0,0,0c0,0.1,0,0.1,0.1,0.2c0,0,0.1,0.1,0.2,0.1
						c0.1,0,0.2-0.1,0.3-0.2l0,0c0,0.1,0,0.2,0,0.3c0,0.2,0,0.5,0,0.7c0,0.2,0,0.5,0.1,0.7c0.1,0.2,0.1,0.4,0.2,0.6
						c0.4,0.8,1,1.6,1.7,2.1l0.6,0.4l-0.6,0.2c0,0-0.1,0-0.2,0.1s-0.1,0-0.2,0.1c-0.1,0-0.2,0-0.3,0.1c-0.1,0-0.2,0-0.3,0L5,19.1
						c0.2,0.6,0.6,1.2,0.9,1.7c0.4,0.5,0.8,1,1.3,1.5l0.3,0.3l-0.4,0.2C7,22.9,6.8,23,6.6,23c-0.2,0.1-0.4,0.1-0.6,0.1l0.2-0.5
						c0.3,0.4,0.5,0.7,0.9,1c0.3,0.3,0.7,0.6,1,0.8l0.5,0.3L8.1,25c-0.1,0-0.2,0.1-0.3,0.2c-0.1,0.1-0.2,0.2-0.4,0.2l0.1-0.5
						c0.4,0.6,1,1.1,1.6,1.4c0.6,0.4,1.3,0.7,2,0.9l1,0.3l-1,0.3c-0.4,0.1-0.7,0.2-1.2,0.3l0.2-0.5c0.3,0.4,0.7,0.8,1.2,1.2
						c0.4,0.3,0.9,0.6,1.4,0.8l0.8,0.3l-0.8,0.3c-0.2,0.1-0.4,0.2-0.5,0.3l0-0.5c0.5,0.4,1,0.7,1.6,1c0.6,0.3,1.2,0.4,1.8,0.5
						l0.5,0.1L15.8,32c0,0.1,0,0.1-0.1,0.2c0,0.1-0.1,0.2-0.1,0.3l0,0l-0.1-0.4c0.4,0.3,0.8,0.5,1.3,0.7s0.9,0.5,1.3,0.7
						c0.2,0.1,0.4,0.3,0.6,0.4c0.2,0.1,0.4,0.3,0.6,0.5c0.1,0.1,0.2,0.2,0.3,0.2s0.2,0.2,0.3,0.2c0.2,0.1,0.4,0.3,0.6,0.4l0,0
						c-0.3-0.2-0.7-0.3-1-0.4c-0.4-0.1-0.7-0.1-1.1-0.1l0,0l0.3-0.3c0,0.1,0,0.2,0,0.3s0,0.2,0,0.4l0,0.4l-0.4-0.2
						c-0.5-0.3-1.1-0.5-1.6-0.7c-0.5-0.2-1.1-0.4-1.6-0.6l0.3-0.3c0,0.1,0,0.2,0,0.4c0,0.1,0,0.2,0,0.3l-0.1,0.5L15,34.7
						c-0.5-0.4-1-0.7-1.5-1c-0.5-0.3-1.1-0.4-1.7-0.6l0.3-0.3c0,0.1,0,0.3,0.1,0.4c0,0.1,0,0.2,0,0.3l0.1,0.6l-0.5-0.3
						c-0.6-0.3-1.2-0.6-1.9-0.7l0.3-0.3c0,0.1,0,0.3,0,0.4c0,0.1,0,0.2,0,0.3l0.1,0.8l-0.5-0.5c-0.9-0.9-2.1-1.3-3.3-1.3l0.2-0.4
						c0,0.1,0.1,0.2,0.1,0.3c0,0.1,0,0.2,0,0.2s0,0.2,0,0.2c0,0.1,0,0.1,0,0.2L7,33.5l-0.4,0c-0.3,0-0.6-0.1-0.9-0.2
						C5.5,33.2,5.3,33,5,32.9c-0.1-0.1-0.2-0.2-0.3-0.3c-0.1-0.1-0.2-0.2-0.3-0.3c-0.2-0.2-0.3-0.4-0.5-0.6c-0.3-0.4-0.6-0.8-1-1
						c-0.4-0.3-0.8-0.4-1.3-0.3l0.1-0.4c0.4,0.4,0.8,0.9,1.1,1.5c0.3,0.5,0.6,1.1,0.9,1.6c0.3,0.5,0.6,1,1,1.4
						C5,34.8,5.5,35.1,6,35.3l0.1,0l0,0.1c0,0.1,0,0.2,0,0.3c0,0.1,0,0.2-0.1,0.2c0,0.1-0.1,0.1-0.1,0.2c0,0.1-0.1,0.1-0.1,0.2
						l0-0.4c0.4,0.3,0.8,0.5,1.2,0.7c0.4,0.2,0.9,0.3,1.4,0.2l0.4,0l-0.1,0.4c0,0.1-0.1,0.2-0.1,0.3S8.6,37.8,8.6,38l-0.1-0.3
						c0.6,0.2,1.3,0.4,2,0.5c0.7,0.1,1.3,0.1,2,0l0.3,0l-0.1,0.3c0,0.1,0,0.1-0.1,0.2c0,0.1,0,0.1-0.1,0.2c0,0.1-0.1,0.2-0.1,0.3
						l-0.2-0.3c0.6,0,1.3-0.1,1.9-0.2c0.6-0.1,1.2-0.3,1.8-0.5l0.4-0.1l0,0.4c0,0.2,0,0.3-0.1,0.5c0,0.2-0.1,0.3-0.1,0.5l0,0
						L15.8,39c0.4-0.1,0.9-0.3,1.3-0.4s0.9-0.3,1.3-0.5s0.9-0.3,1.3-0.5c0.4-0.2,0.8-0.4,1.2-0.6c-0.4,0.3-0.8,0.5-1.2,0.7
						c-0.4,0.2-0.8,0.4-1.2,0.6s-0.8,0.4-1.3,0.6s-0.9,0.4-1.3,0.5l-0.3,0.1l0-0.4l0,0c0-0.2,0-0.3,0.1-0.5c0-0.2,0.1-0.3,0.1-0.5
						l0.3,0.2c-0.6,0.3-1.2,0.4-1.9,0.5c-0.6,0.1-1.3,0.2-2,0.2h-0.3l0.1-0.3c0-0.1,0-0.1,0.1-0.2c0-0.1,0-0.1,0.1-0.2
						c0-0.1,0.1-0.2,0.1-0.3l0.3,0.3c-0.7,0.1-1.4,0.1-2.1,0c-0.7-0.1-1.4-0.3-2.1-0.5L8,38l0.1-0.2c0-0.1,0.1-0.2,0.1-0.3
						c0-0.1,0.1-0.2,0.1-0.4l0.2,0.3c-0.5,0-1.1-0.1-1.6-0.3c-0.5-0.2-1-0.5-1.4-0.8l-0.2-0.2L5.6,36c0.1-0.1,0.1-0.1,0.1-0.2
						c0,0,0-0.1,0-0.1c0,0,0,0,0-0.1l0.2,0.1c-0.3-0.1-0.6-0.2-0.9-0.4c-0.3-0.2-0.5-0.4-0.7-0.6c-0.4-0.5-0.8-1-1-1.5
						c-0.3-0.5-0.6-1.1-0.9-1.5c-0.3-0.5-0.7-0.9-1.1-1.4L1,30l0.4-0.1c0.3-0.1,0.6-0.1,0.9,0c0.3,0.1,0.5,0.2,0.8,0.4
						c0.2,0.2,0.4,0.3,0.6,0.5c0.2,0.2,0.4,0.4,0.5,0.6s0.3,0.4,0.5,0.6C4.9,32,5,32.1,5.1,32.2c0.1,0.1,0.2,0.2,0.3,0.2
						c0.2,0.1,0.4,0.3,0.6,0.4c0.2,0.1,0.4,0.1,0.6,0.1l-0.2,0.4c0-0.1-0.1-0.2-0.1-0.3c0-0.1,0-0.2,0-0.2s0-0.2,0-0.2
						c0-0.1,0-0.1,0-0.2L6.1,32l0.4,0c1.4-0.1,2.7,0.4,3.7,1.4l-0.5,0.2c0-0.1,0-0.3,0-0.4c0-0.1,0-0.2,0-0.3l0-0.4l0.4,0.1
						c0.7,0.2,1.4,0.4,2,0.8l-0.4,0.3c0-0.1,0-0.3-0.1-0.4c0-0.1,0-0.2,0-0.3l-0.1-0.4l0.4,0.1c0.6,0.1,1.2,0.3,1.8,0.6
						c0.6,0.3,1.1,0.6,1.6,1l-0.5,0.2c0-0.2,0-0.4,0-0.6l0-0.4l0.4,0.1c0.6,0.1,1.2,0.3,1.7,0.6c0.6,0.2,1.1,0.5,1.6,0.7l-0.4,0.2
						c0-0.1,0-0.2,0-0.3s0-0.2,0-0.4l0-0.4l0.3,0.1l0,0c0.4,0.1,0.7,0.3,1.1,0.4c0.3,0.2,0.7,0.4,0.9,0.7l0,0
						c-0.2-0.1-0.4-0.3-0.6-0.4c-0.2-0.1-0.4-0.2-0.7-0.3c-0.2-0.1-0.5-0.2-0.7-0.3s-0.5-0.2-0.7-0.3s-0.5-0.2-0.7-0.3l-0.3-0.2
						c-0.1-0.1-0.2-0.1-0.3-0.2c-0.5-0.2-0.9-0.5-1.3-0.8L15,32.4l0.1-0.2l0,0c0-0.1,0-0.1,0-0.2c0-0.1,0.1-0.2,0.1-0.3l0.2,0.4
						c-0.7-0.1-1.3-0.3-2-0.5c-0.6-0.3-1.2-0.6-1.8-1l-0.3-0.2l0.3-0.2c0.2-0.2,0.5-0.3,0.7-0.4l0,0.6c-0.6-0.2-1.1-0.5-1.6-0.9
						c-0.5-0.4-0.9-0.8-1.3-1.3l-0.3-0.4l0.5-0.1c0.4-0.1,0.7-0.2,1.2-0.3l0,0.6c-0.7-0.2-1.4-0.6-2.1-1c-0.3-0.2-0.6-0.5-0.9-0.7
						c-0.3-0.3-0.6-0.6-0.8-0.9l-0.2-0.3l0.4-0.2c0.1,0,0.2-0.1,0.3-0.2c0.1-0.1,0.2-0.2,0.4-0.2L7.8,25c-0.4-0.3-0.8-0.6-1.1-0.9
						C6.3,23.8,6,23.4,5.7,23l-0.3-0.5L6,22.5c0.2,0,0.3,0,0.5-0.1c0.2,0,0.3-0.1,0.4-0.2l-0.1,0.5c-0.5-0.5-1-1-1.4-1.6
						c-0.4-0.6-0.7-1.2-1-1.8l-0.2-0.6l0.6,0.1c0,0,0.1,0,0.1,0c0,0,0.1,0,0.1,0c0.1,0,0.2-0.1,0.4-0.1l-0.1,0.6
						c-0.9-0.6-1.6-1.4-2-2.4C3.1,16.5,3,16,3,15.5c0-0.3,0-0.5,0-0.8c0-0.1,0-0.3,0-0.4l0,0c0-0.1,0.1-0.2,0.1-0.2
						c0.2-0.1,0.4-0.1,0.5,0c0,0.1,0.1,0.1,0.1,0.2c0,0,0,0,0,0v0c0,0,0,0.1,0,0.1c0,0.2,0.1,0.4,0.2,0.6c0.1,0.2,0.2,0.4,0.4,0.5
						c0.3,0.3,0.7,0.6,1.1,0.8c0.4,0.2,0.9,0.4,1.3,0.7c0.2,0.1,0.4,0.3,0.6,0.5c0.2,0.2,0.4,0.4,0.5,0.6l-0.6,0.1
						c0-0.4,0.1-0.8,0.1-1.1l0.1-0.6L8,16.9c0.5,0.4,0.9,0.8,1.3,1.3c0.4,0.5,0.7,0.9,1,1.5l-0.5,0.1c0.1-0.2,0.1-0.4,0.1-0.6
						c0-0.2,0-0.4,0-0.7l0-0.7l0.5,0.5c0.4,0.4,0.8,0.9,1.2,1.4c0.3,0.5,0.6,1.1,0.8,1.6l-0.6,0c0.1-0.5,0.2-1,0.3-1.5l0.1-0.6
						l0.4,0.5c0.4,0.5,0.7,1,1,1.6c0.3,0.6,0.5,1.1,0.7,1.7l-0.5,0c0.1-0.2,0.2-0.4,0.3-0.7s0.2-0.4,0.2-0.6l0.1-0.5l0.3,0.4
						c0.5,0.6,0.9,1.2,1.2,1.8c0.3,0.7,0.5,1.3,0.7,2.1L16,25.3c0.1-0.2,0.2-0.4,0.3-0.6c0.1-0.2,0.1-0.4,0.2-0.6l0.1-0.5l0.4,0.4
						c0.5,0.6,0.9,1.2,1.2,1.9c0.3,0.7,0.5,1.4,0.5,2.2L18.2,28c0.1-0.2,0.1-0.4,0.2-0.6s0.1-0.4,0.2-0.5l0.1-0.4l0.3,0.3
						c0.5,0.5,0.9,1.2,1.2,1.8c0.2,0.3,0.3,0.7,0.4,1c0.1,0.4,0.2,0.7,0.2,1.1l-0.2-0.1c0,0,0.1-0.1,0.1-0.1s0.1-0.1,0.1-0.1
						l0.1-0.1l0.1,0.1c0.2,0.4,0.5,0.8,0.7,1.2c0.1,0.2,0.2,0.4,0.3,0.6S22.2,32.6,22.3,32.9"/>
				</g>
				<g>
					<path class="st4" d="M20.1,37.5c-0.4,0.3-0.9,0.7-1.2,1l0,0l-0.2-0.4c0.1,0,0.2,0,0.3,0c0.1,0,0.2,0.1,0.3,0.2l0.3,0.2
						l-0.3,0.1c-0.4,0.2-0.8,0.4-1.1,0.7L18,39c0.1,0,0.3,0.1,0.4,0.1l0.7,0.2l-0.7,0.3c-0.7,0.3-1.4,0.8-1.9,1.4l-0.2-0.4
						c0.3,0,0.5,0,0.7,0.1l0.5,0.2l-0.4,0.2c-0.4,0.2-0.7,0.4-1,0.7c-0.3,0.3-0.5,0.6-0.7,1l-0.3-0.3l0.9-0.2l0.6-0.2l-0.4,0.5
						c-0.7,1-1.1,2.3-0.9,3.6L15.2,46c0.8-0.2,1.6-0.5,2.3-1c0.7-0.5,1.3-1.1,1.8-1.7l0.2-0.3l0.2,0.3c0,0.1,0.1,0.1,0.1,0.2
						c0,0.1,0,0.1,0.1,0.2s0,0.1,0.1,0.2c0,0.1,0,0.1,0.1,0.1l-0.4-0.1c0.6-0.6,1.1-1.4,1.3-2.2l0.1-0.5l0.3,0.4l0.3,0.4l-0.4,0.1
						c0.2-0.4,0.3-0.8,0.4-1.2c0.1-0.4,0.2-0.8,0.2-1.2l0.1-0.6l0.4,0.4c0.1,0.1,0.1,0.1,0.1,0.2c0,0.1,0.1,0.1,0.1,0.1l0,0L22,40
						c0.3-0.8,0.5-1.6,0.6-2.4c0.1,0.8,0,1.7-0.2,2.5l-0.1,0.5l-0.3-0.4l0,0C22,40.2,22,40.1,21.9,40c0-0.1-0.1-0.1-0.1-0.1l0.4-0.1
						c0,0.4-0.1,0.9-0.2,1.3c-0.1,0.4-0.3,0.8-0.4,1.2l-0.2,0.4l-0.2-0.3l-0.3-0.4l0.4-0.1c-0.2,0.9-0.7,1.8-1.4,2.5l-0.2,0.2
						l-0.1-0.3c0-0.1-0.1-0.1-0.1-0.2c0-0.1,0-0.1-0.1-0.2s0-0.1-0.1-0.2c0,0,0-0.1-0.1-0.1l0.4,0c-0.5,0.7-1.2,1.4-1.9,1.9
						c-0.7,0.5-1.6,0.9-2.5,1.1L15,46.5l0-0.3c-0.2-1.4,0.2-2.8,1-3.9l0.2,0.4l-0.9,0.2L14.9,43l0.2-0.5c0.2-0.4,0.5-0.8,0.8-1.1
						c0.3-0.3,0.7-0.6,1.1-0.8l0,0.4C16.8,41,16.6,41,16.4,41l-0.5,0l0.3-0.4c0.3-0.3,0.6-0.6,0.9-0.9c0.3-0.3,0.7-0.5,1.1-0.6
						l0,0.4c-0.1,0-0.3-0.1-0.4-0.1l-0.4-0.1l0.3-0.3c0.3-0.3,0.8-0.6,1.2-0.8l-0.1,0.4c0,0-0.1,0-0.1,0c0,0-0.1,0-0.1,0l-1.2,0.1
						l1-0.5C19.1,37.9,19.6,37.7,20.1,37.5"/>
				</g>
				<g>
					<path class="st4" d="M20.8,37.1c-0.3,0.2-0.7,0.4-1,0.7c-0.3,0.2-0.6,0.4-0.9,0.6c-0.1,0.1,0,0.1,0.1,0.1
						c0.3-0.2,0.7-0.4,1-0.7C20.2,37.5,20.5,37.3,20.8,37.1C21.3,36.7,20.8,37.1,20.8,37.1"/>
				</g>
				<g>
					<path class="st4" d="M20,37.5c-0.3,0.1-0.6,0.3-0.8,0.5c0,0,0,0,0,0C19.5,37.9,19.7,37.7,20,37.5"/>
				</g>
				<g>
					<path class="st4" d="M19.8,37.6c-0.1,0-0.1,0-0.2,0.1c-0.1,0-0.1,0.1-0.2,0.1c0,0,0,0,0,0c0,0,0,0,0,0c0.1,0,0.1-0.1,0.2-0.1
						C19.7,37.8,19.8,37.7,19.8,37.6C19.8,37.7,19.8,37.6,19.8,37.6C19.8,37.6,19.8,37.6,19.8,37.6"/>
				</g>
				<g>
					<path class="st4" d="M19.8,37.7l-0.1,0.1c0,0,0,0,0,0C19.7,37.8,19.8,37.7,19.8,37.7L19.8,37.7c0,0-0.1,0.1-0.2,0.2
						c0,0,0,0,0,0C19.7,37.8,19.7,37.8,19.8,37.7C19.8,37.7,19.8,37.7,19.8,37.7c0,0-0.1,0.1-0.1,0.1l0,0L19.8,37.7L19.8,37.7"/>
				</g>
				<g>
					<path class="st4" d="M19.8,37.6C19.8,37.6,19.8,37.6,19.8,37.6l-0.2,0.1c0,0,0,0.1,0,0.1C19.7,37.7,19.8,37.7,19.8,37.6
						L19.8,37.6l-0.2,0.1l0,0.1c0,0,0.1,0,0.1-0.1C19.8,37.7,19.8,37.7,19.8,37.6C19.8,37.7,19.7,37.7,19.8,37.6
						c-0.1,0.1-0.2,0.1-0.2,0.1c0,0,0,0.1,0,0.1L19.8,37.6C19.9,37.7,19.9,37.6,19.8,37.6c-0.1,0-0.1,0-0.2,0.1l0,0.1L19.8,37.6
						C19.8,37.7,19.8,37.7,19.8,37.6L19.8,37.6"/>
				</g>
				<g>
					<path class="st4" d="M4.9,33.5c1.3,1.8,3.7,2.4,5.8,2.8c2.5,0.6,5.2,0.7,7.8,0.4c1.5-0.3,3-0.4,4.5-0.3c0.3,0,0.3-0.4,0-0.4
						c-1.3-0.1-2.5,0-3.7,0.2c-1.3,0.2-2.6,0.3-3.8,0.3c-2.5-0.1-5-0.5-7.3-1.3C6.8,35,5.8,34.4,4.9,33.5L4.9,33.5"/>
				</g>
				<g>
					<path class="st4" d="M23,36.2c-0.4,0-0.7,0.4-1,0.7c-0.3,0.3-0.6,0.7-0.8,1.1c-0.6,0.8-1.1,1.6-1.6,2.4c-1,1.7-2.1,3.3-3.4,4.7
						c0,0,0,0,0,0c0.7-0.6,1.3-1.3,1.8-2c0.6-0.7,1.1-1.5,1.6-2.3c0.5-0.8,1-1.5,1.6-2.3c0.3-0.4,0.6-0.8,0.9-1.2
						c0.1-0.2,0.3-0.3,0.4-0.5c0.2-0.2,0.4-0.3,0.6-0.4c0.1-0.1,0.1-0.2,0-0.3C23.1,36.2,23,36.2,23,36.2"/>
				</g>
				<g>
					<path class="st4" d="M17.2,41.8c0.2-0.1,0.5-0.2,0.8-0.3c0.2,0,0.4-0.2,0.6-0.3c0,0,0-0.1,0-0.1c0,0,0,0,0,0
						c-0.2,0-0.5,0.1-0.7,0.3C17.6,41.5,17.4,41.7,17.2,41.8L17.2,41.8"/>
				</g>
				<g>
					<path class="st4" d="M18.2,40.5c0.3-0.1,0.6-0.2,0.9-0.3c0.2-0.1,0.5-0.1,0.6-0.3c0,0,0-0.1,0-0.1c0,0,0,0,0,0
						c-0.2-0.1-0.5,0.1-0.7,0.2C18.7,40.1,18.4,40.3,18.2,40.5C18.2,40.5,18.2,40.5,18.2,40.5C18.2,40.5,18.2,40.5,18.2,40.5
						L18.2,40.5"/>
				</g>
				<g>
					<path class="st4" d="M19.4,39c0.2-0.1,0.4-0.1,0.6-0.2c0.2,0,0.3-0.1,0.4-0.2c0,0,0-0.1,0-0.1c0,0,0,0,0,0
						C20.1,38.4,19.7,38.9,19.4,39C19.4,39,19.4,39.1,19.4,39"/>
				</g>
				<g>
					<path class="st4" d="M17.7,44.4c0.6-0.7,1-1.6,1.2-2.5c0,0-0.1,0-0.1,0c-0.2,0.4-0.4,0.8-0.6,1.2
						C18.1,43.5,17.9,43.9,17.7,44.4L17.7,44.4"/>
				</g>
				<g>
					<path class="st4" d="M19.5,42.5c0.1-0.5,0.3-1.1,0.5-1.6c0.2-0.5,0.4-1,0.5-1.5c0-0.1-0.1-0.1-0.1,0c-0.3,0.4-0.6,0.9-0.6,1.5
						C19.6,41.4,19.5,41.9,19.5,42.5L19.5,42.5"/>
				</g>
				<g>
					<path class="st4" d="M20.9,40.8c0.1-0.8,0.4-1.6,0.7-2.4c0.2-0.4,0.4-0.7,0.6-1c0.1-0.2,0.3-0.4,0.4-0.5s0.2-0.4,0.4-0.5
						c0,0,0-0.1,0-0.1c-0.2,0.1-0.4,0.2-0.6,0.3c-0.2,0.1-0.3,0.3-0.4,0.5c-0.3,0.4-0.5,0.8-0.7,1.2C21,39,20.8,39.9,20.9,40.8
						C20.9,40.8,20.9,40.8,20.9,40.8"/>
				</g>
				<g>
					<path class="st4" d="M19.6,42.1c0.3-0.7,0.6-1.4,1-2.1c0.3-0.6,0.8-1.2,1-1.9c0-0.1-0.1-0.1-0.1-0.1c-0.5,0.5-0.9,1.2-1.2,1.9
						C19.9,40.6,19.7,41.3,19.6,42.1L19.6,42.1"/>
				</g>
				<g>
					<path class="st4" d="M18.5,42.9c0.3-0.6,0.5-1.1,0.8-1.7c0.3-0.5,0.7-1.1,1-1.6c0,0,0,0,0,0C19.4,40.6,18.8,41.7,18.5,42.9
						L18.5,42.9"/>
				</g>
				<g>
					<path class="st4" d="M7.1,36.3c0.2,0.1,0.5,0.1,0.7,0.2c0.3,0,0.6,0,0.9-0.1c0.3-0.1,0.6-0.1,0.9-0.1c0.3-0.1,0.6-0.1,1-0.1
						c0,0,0.1,0,0-0.1c-0.5-0.3-1-0.4-1.5-0.2C8.8,36,8.5,36,8.2,36.1C7.8,36.2,7.5,36.3,7.1,36.3L7.1,36.3"/>
				</g>
				<g>
					<path class="st4" d="M9.4,37.2c1.3,0.7,2.5-0.6,3.9-0.6c0,0,0,0,0,0c0,0,0,0,0,0c-0.6-0.2-1.3-0.2-1.8,0.1
						C10.8,36.8,10.1,37.4,9.4,37.2L9.4,37.2"/>
				</g>
				<g>
					<path class="st4" d="M12.7,37.8c0.7,0.2,1.4,0.1,2.1-0.3c0.4-0.2,0.8-0.3,1.1-0.4c0.4-0.1,0.8-0.3,1.2-0.3c0,0,0-0.1,0-0.1
						c-0.4-0.1-0.7-0.1-1.1-0.1c-0.4,0.1-0.7,0.2-1.1,0.3c-0.3,0.1-0.6,0.3-0.9,0.4C13.6,37.6,13.1,37.8,12.7,37.8L12.7,37.8"/>
				</g>
				<g>
					<path class="st4" d="M16.6,38c0.9-0.1,1.7-0.4,2.4-0.9c0.5-0.2,1-0.4,1.5-0.5c0.3,0,0.5-0.1,0.8-0.1c0.3,0,0.5,0,0.8,0
						c0,0,0.1,0,0-0.1c0,0,0,0,0,0c-0.9-0.3-2-0.2-2.9,0.2c-0.4,0.2-0.8,0.4-1.2,0.7C17.6,37.5,17.1,37.8,16.6,38"/>
				</g>
				<g>
					<path class="st4" d="M7.3,33.8c0.4,0.1,0.6,0.7,0.9,0.9c0.3,0.3,0.6,0.5,0.9,0.7c0,0,0.1,0,0.1,0c0,0,0,0,0-0.1
						c-0.2-0.4-0.5-0.7-0.9-1C8,34,7.7,33.9,7.3,33.8"/>
				</g>
				<g>
					<path class="st4" d="M10.5,34.7c0.3,0.2,0.6,0.5,0.9,0.7c0.3,0.2,0.6,0.3,0.9,0.4c0,0,0.1,0,0-0.1c-0.2-0.3-0.5-0.5-0.8-0.7
						C11.2,34.9,10.9,34.8,10.5,34.7"/>
				</g>
				<g>
					<path class="st4" d="M12.8,34.5c0.3,0.2,0.5,0.5,0.8,0.7s0.6,0.4,0.8,0.6c0,0,0.1,0,0,0c-0.2-0.3-0.4-0.5-0.7-0.8
						C13.4,34.8,13.1,34.6,12.8,34.5"/>
				</g>
				<g>
					<path class="st4" d="M15.4,35.3c0.2,0.2,0.4,0.4,0.7,0.5c0.2,0.1,0.5,0.1,0.7,0.1c0.1,0,0.1-0.1,0-0.1
						c-0.2-0.2-0.4-0.3-0.6-0.4C15.9,35.3,15.6,35.4,15.4,35.3C15.4,35.3,15.4,35.3,15.4,35.3"/>
				</g>
				<g>
					<path class="st4" d="M17.3,35.5c0.3,0.5,0.9,0.6,1.4,0.4c0,0,0.1-0.1,0-0.1c0,0,0,0-0.1-0.1C18.2,35.8,17.7,35.7,17.3,35.5
						L17.3,35.5"/>
				</g>
				<g>
					<path class="st4" d="M20.5,29.7c-0.1,0.2-0.1,0.4,0,0.6c0,0,0.1,0.1,0.1,0.1c0,0,0.1,0,0.1-0.1c0-0.1,0-0.3,0-0.4
						c0-0.1-0.1-0.1-0.1-0.1c0,0-0.1,0.1-0.1,0.1c0,0.2,0,0.4,0.1,0.6c0,0.1,0.1,0.1,0.2,0c0,0,0.1,0,0.1-0.1c0-0.2,0-0.4-0.1-0.6
						c-0.1-0.1-0.3-0.1-0.3,0c0,0.1,0,0.3,0.1,0.4c0,0.1,0.2,0.1,0.2,0c0-0.2,0-0.5-0.2-0.7C20.7,29.5,20.6,29.5,20.5,29.7
						C20.5,29.6,20.5,29.7,20.5,29.7c0.1,0.2,0.1,0.4,0.2,0.6c0,0.1,0.1,0.1,0.2,0.1c0.1,0,0.1-0.1,0.1-0.1
						c-0.1-0.3-0.2-0.6-0.3-0.9c0-0.1-0.2-0.1-0.2,0c0.1,0.3,0.2,0.5,0.3,0.8c0,0,0,0,0.1,0c0,0,0,0,0-0.1c-0.1-0.3-0.2-0.5-0.2-0.8
						l-0.2,0c0.1,0.3,0.1,0.6,0.2,0.9l0.2-0.1c-0.1-0.2-0.1-0.3-0.2-0.5L20.5,29.7c0.1,0.2,0.1,0.4,0.1,0.6l0.2-0.1
						c0-0.1-0.1-0.2,0-0.3l-0.3,0c0,0.1,0,0.3,0.1,0.4l0.3-0.1c-0.1-0.1-0.1-0.3-0.2-0.4l-0.2,0c0,0.1,0,0.2,0,0.3l0.2,0
						C20.6,30,20.5,29.8,20.5,29.7C20.5,29.7,20.5,29.7,20.5,29.7C20.5,29.7,20.5,29.7,20.5,29.7"/>
				</g>
				<g>
					<path class="st4" d="M5.1,17.9c1.3,0.9,2.4,2,3.2,3.2c0.9,1.2,1.8,2.5,2.8,3.7c2.2,2.5,4.5,4.9,7,7c0.7,0.6,1.4,1.2,2.1,1.8
						s1.5,1.1,2.2,1.7c0,0,0.1,0,0.1-0.1c-0.6-0.6-1.2-1.2-1.8-1.8s-1.3-1.1-1.9-1.6c-1.3-1.1-2.5-2.2-3.7-3.4
						c-1.2-1.1-2.4-2.3-3.4-3.6c-1-1.2-2-2.5-2.9-3.7C7.8,19.9,6.6,18.7,5.1,17.9L5.1,17.9"/>
				</g>
				<g>
					<path class="st4" d="M16.7,32.4c0.3,0,0.6,0.1,0.9,0.2c0.3,0,0.6,0.1,0.9,0.1c0.5,0.1,0.9,0.3,1.3,0.7c0,0,0.1,0,0.1-0.1
						c-0.2-0.5-0.7-0.9-1.2-1c-0.3-0.1-0.6-0.1-1-0.1C17.4,32.2,17.1,32.3,16.7,32.4C16.7,32.4,16.7,32.4,16.7,32.4"/>
				</g>
				<g>
					<path class="st4" d="M13.5,30.5c0.5,0,1,0.1,1.5,0.2c0.5,0.1,1,0.2,1.5,0.3c0.5,0.2,0.9,0.4,1.3,0.7c0.4,0.3,0.8,0.6,1.2,0.9
						c0.1,0,0.2,0,0.2-0.1c-0.2-0.4-0.6-0.8-1-1c-0.5-0.3-1-0.6-1.5-0.8c-0.5-0.2-1-0.3-1.6-0.4C14.6,30.3,14,30.3,13.5,30.5
						C13.5,30.5,13.5,30.5,13.5,30.5C13.5,30.5,13.5,30.5,13.5,30.5"/>
				</g>
				<g>
					<path class="st4" d="M11.4,28.4c0.6,0,1.1,0.1,1.7,0.2c0.5,0.1,1,0.2,1.5,0.4c1,0.4,1.9,1,2.7,1.8c0,0,0.1,0,0.1,0
						c0,0,0,0,0-0.1c-0.6-1-1.5-1.7-2.5-2.1c-0.5-0.2-1.1-0.4-1.7-0.5C12.5,28.2,11.9,28.3,11.4,28.4C11.4,28.4,11.4,28.4,11.4,28.4
						C11.4,28.4,11.4,28.4,11.4,28.4"/>
				</g>
				<g>
					<path class="st4" d="M8.7,25.5c0.6,0,1.2,0.1,1.8,0.2c0.6,0.2,1.1,0.4,1.7,0.8c0.5,0.3,1,0.7,1.5,1.1c0.4,0.4,0.8,0.8,1.3,1.2
						c0,0,0.1,0,0.1-0.1c-0.3-0.6-0.8-1.1-1.2-1.5c-0.4-0.5-0.9-0.9-1.5-1.3c-0.5-0.3-1.1-0.6-1.7-0.7C9.9,25.2,9.3,25.3,8.7,25.5
						C8.7,25.5,8.7,25.5,8.7,25.5"/>
				</g>
				<g>
					<path class="st4" d="M7.2,23.3c0.5,0.1,1,0.2,1.4,0.3c0.5,0.1,0.9,0.3,1.4,0.5c0.4,0.2,0.8,0.5,1.2,0.7
						c0.4,0.3,0.8,0.7,1.1,1.2c0,0,0,0,0,0s0,0,0,0l0,0c-0.5-0.9-1.2-1.7-2.1-2.3c-0.5-0.3-0.9-0.4-1.4-0.6
						C8.3,23.2,7.7,23.2,7.2,23.3"/>
				</g>
				<g>
					<path class="st4" d="M5.9,19.9c0.3,0.4,0.6,0.8,1,1.1c0.4,0.3,0.8,0.6,1.2,0.8c0.8,0.6,1.6,1.3,2.2,2c0,0,0.1,0,0.1,0
						c-0.4-0.8-1-1.6-1.8-2.1c-0.4-0.3-0.8-0.6-1.3-0.9C6.9,20.5,6.4,20.2,5.9,19.9"/>
				</g>
				<g>
					<path class="st4" d="M8.6,19.3c0,1,0.3,1.9,1,2.6c0,0,0.1,0,0.1-0.1C9.4,20.9,9,20.1,8.6,19.3L8.6,19.3"/>
				</g>
				<g>
					<path class="st4" d="M10.7,20.9c-0.1,0.1-0.1,0.5-0.1,0.8c0,0.3,0.1,0.7,0.1,1c0.2,0.6,0.5,1.2,0.9,1.7c0,0.1,0.1,0,0.1-0.1
						c-0.3-0.6-0.5-1.2-0.6-1.8c-0.1-0.3-0.1-0.6-0.1-1c0-0.3-0.1-0.5-0.2-0.7c0,0,0,0,0,0c0,0,0,0,0,0L10.7,20.9"/>
				</g>
				<g>
					<path class="st4" d="M12.9,23c-0.2,0.6-0.2,1.2-0.1,1.7c0.1,0.6,0.3,1.1,0.7,1.5c0.1,0,0.1,0,0.2,0c0,0,0,0,0-0.1
						c-0.1-0.5-0.3-1-0.5-1.5C13.1,24.1,13,23.5,12.9,23C12.9,23,12.9,23,12.9,23"/>
				</g>
				<g>
					<path class="st4" d="M15,24.6c-0.3,0.5-0.4,1.1-0.2,1.6c0,0.6,0.3,1.1,0.7,1.6c0.1,0,0.2,0,0.2-0.1c0-0.5-0.3-1-0.4-1.5
						C15.2,25.6,15.1,25.1,15,24.6L15,24.6"/>
				</g>
				<g>
					<path class="st4" d="M16.9,26.4c-0.2,0.7-0.2,1.3-0.1,2c0.1,0.7,0.4,1.4,0.8,1.9c0,0,0.1,0,0.1,0c0,0,0,0,0-0.1
						C17.4,29,17.1,27.7,16.9,26.4C16.9,26.4,16.9,26.4,16.9,26.4"/>
				</g>
				<g>
					<path class="st4" d="M18.7,29.1c-0.2,0.4-0.2,0.9-0.1,1.4c0.1,0.5,0.3,1,0.7,1.4c0,0,0.1,0,0.1,0c0,0,0-0.1,0-0.1
						c-0.1-0.5-0.3-0.9-0.4-1.4C19.1,29.9,18.9,29.5,18.7,29.1C18.8,29.1,18.7,29.1,18.7,29.1C18.7,29.1,18.7,29.1,18.7,29.1"/>
				</g>
				<g>
					<path class="st4" d="M19.4,30.2c0,0.4,0.1,0.8,0.3,1.1c0,0,0,0,0.1,0c0,0,0,0,0-0.1C19.7,31,19.6,30.6,19.4,30.2
						C19.4,30.2,19.4,30.2,19.4,30.2C19.4,30.2,19.4,30.2,19.4,30.2"/>
				</g>
				<g>
					<path class="st4" d="M13.6,24.2c-0.1,0.4,0,0.9,0.3,1.3c0,0,0,0,0.1,0c0,0,0,0,0-0.1C13.7,25,13.6,24.6,13.6,24.2
						C13.6,24.2,13.6,24.2,13.6,24.2"/>
				</g>
				<g>
					<path class="st4" d="M15.5,26.1c0,0.4,0.1,0.8,0.3,1.1c0,0,0.1,0,0.1,0c0,0,0,0,0-0.1C15.8,26.8,15.6,26.4,15.5,26.1
						C15.5,26.1,15.5,26.1,15.5,26.1C15.5,26.1,15.5,26.1,15.5,26.1"/>
				</g>
				<g>
					<path class="st4" d="M20.8,34.8c0.4,0.3,0.8,0.6,1.1,1c0.2,0.2,0.6,0.6,0.9,0.6c0.1,0,0.1-0.1,0.1-0.1c0-0.4-0.6-0.7-0.9-0.8
						C21.7,35.2,21.3,35,20.8,34.8C20.8,34.8,20.8,34.8,20.8,34.8"/>
				</g>
				<g>
					<path class="st4" d="M22.6,36c0.1,0.2,0.2,0.4,0.4,0.5c0,0,0,0,0.1,0c0,0,0,0,0,0C22.9,36.2,22.8,36.1,22.6,36"/>
				</g>
				<g>
					<path class="st4" d="M17.9,33.2c0.4-0.1,0.8,0,1.2,0.2c0.1,0,0.1-0.1,0.1-0.1C18.8,32.9,18.3,32.9,17.9,33.2
						C17.9,33.2,17.9,33.2,17.9,33.2C17.9,33.2,17.9,33.2,17.9,33.2"/>
				</g>
				<g>
					<path class="st4" d="M14.3,38.2c0.3-0.1,0.6-0.2,0.9-0.4c0.3-0.2,0.7-0.3,1-0.5c0,0,0-0.1,0-0.1c0,0,0,0-0.1,0
						c-0.4,0.1-0.7,0.2-1.1,0.4C14.8,37.8,14.5,38,14.3,38.2L14.3,38.2"/>
				</g>
				<g>
					<path class="st4" d="M10.8,37.7c0.7,0.1,1.4-0.1,1.8-0.6c0.1-0.1,0-0.2-0.1-0.1C12,37.2,11.5,37.5,10.8,37.7L10.8,37.7"/>
				</g>
				<g>
					<path class="st4" d="M8.8,36.8c0.1,0.1,0.4,0.1,0.5,0c0.2,0,0.5-0.2,0.6-0.3c0,0,0-0.1,0-0.1c0,0-0.1,0-0.1,0
						c-0.2,0.1-0.4,0.1-0.6,0.2C9.1,36.6,8.9,36.7,8.8,36.8L8.8,36.8"/>
				</g>
				<g>
					<path class="st4" d="M23.8,32.9c0.1-0.2,0.2-0.4,0.3-0.6s0.2-0.4,0.3-0.6c0.2-0.4,0.4-0.8,0.7-1.2l0.1-0.1l0.1,0.1
						c0.1,0,0.1,0.1,0.1,0.1s0.1,0.1,0.1,0.1l-0.2,0.1c0-0.4,0.1-0.7,0.2-1.1c0.1-0.4,0.2-0.7,0.4-1c0.3-0.7,0.7-1.3,1.2-1.8
						l0.3-0.3l0.1,0.4c0.1,0.2,0.1,0.4,0.2,0.5s0.1,0.4,0.2,0.6L27.4,28c0.1-0.8,0.2-1.5,0.5-2.2c0.3-0.7,0.7-1.3,1.2-1.9l0.4-0.4
						l0.1,0.5c0,0.2,0.1,0.4,0.2,0.6c0.1,0.2,0.2,0.4,0.3,0.6l-0.5,0.1c0.1-0.7,0.4-1.4,0.7-2.1c0.3-0.7,0.7-1.3,1.2-1.8l0.3-0.4
						l0.1,0.5c0.1,0.2,0.2,0.4,0.2,0.6s0.2,0.4,0.3,0.7l-0.5,0c0.2-0.6,0.4-1.1,0.7-1.7c0.3-0.6,0.6-1.1,1-1.6l0.4-0.5l0.1,0.6
						c0.1,0.5,0.2,1,0.3,1.5l-0.6,0c0.2-0.6,0.5-1.1,0.8-1.6c0.3-0.5,0.7-1,1.2-1.4l0.5-0.5l0,0.7c0,0.2,0,0.4,0,0.7
						c0,0.2,0,0.4,0.1,0.6l-0.5-0.1c0.3-0.5,0.6-1,1-1.5c0.4-0.5,0.8-0.9,1.2-1.3l0.4-0.4l0.1,0.6c0,0.4,0.1,0.7,0.1,1.1l-0.6-0.1
						c0.2-0.2,0.3-0.4,0.5-0.6c0.2-0.2,0.4-0.3,0.6-0.5c0.4-0.3,0.9-0.5,1.3-0.7c0.4-0.2,0.8-0.5,1.1-0.8c0.2-0.1,0.3-0.3,0.4-0.5
						c0.1-0.2,0.1-0.4,0.2-0.6c0,0,0-0.1,0-0.1v0c0,0,0,0,0,0c0-0.2,0.2-0.4,0.4-0.3c0.1,0,0.1,0,0.2,0.1c0.1,0.1,0.1,0.1,0.1,0.2
						l0,0c0,0.1,0,0.3,0,0.4c0,0.3,0,0.5,0,0.8c0,0.5-0.2,1-0.4,1.5c-0.4,1-1.1,1.8-2,2.4l-0.1-0.6c0.1,0,0.3,0.1,0.4,0.1
						c0,0,0.1,0,0.1,0c0,0,0.1,0,0.1,0l0.6-0.1l-0.2,0.6c-0.3,0.6-0.6,1.3-1,1.8c-0.4,0.6-0.9,1.1-1.4,1.6l-0.1-0.5
						c0.1,0.1,0.3,0.1,0.4,0.2c0.2,0,0.3,0.1,0.5,0.1l0.6,0.1L40.3,23c-0.3,0.4-0.6,0.7-0.9,1.1c-0.3,0.3-0.7,0.6-1.1,0.9l-0.1-0.6
						c0.1,0.1,0.3,0.1,0.4,0.2c0.1,0.1,0.2,0.1,0.3,0.2l0.4,0.2L39,25.3c-0.2,0.3-0.5,0.6-0.8,0.9c-0.3,0.3-0.6,0.5-0.9,0.7
						c-0.7,0.4-1.4,0.8-2.1,1l0-0.6c0.4,0.1,0.8,0.2,1.2,0.3l0.5,0.1l-0.3,0.4c-0.4,0.5-0.8,0.9-1.3,1.3c-0.5,0.4-1,0.7-1.6,0.9
						l0-0.6c0.3,0.1,0.5,0.2,0.7,0.4l0.3,0.2l-0.3,0.2c-0.5,0.4-1.1,0.8-1.8,1c-0.6,0.3-1.3,0.4-2,0.5l0.2-0.4
						c0,0.1,0.1,0.2,0.1,0.3c0,0.1,0,0.1,0,0.2l0,0l0.1,0.2l-0.2,0.1c-0.4,0.3-0.9,0.5-1.3,0.8c-0.1,0.1-0.2,0.1-0.3,0.2l-0.3,0.2
						c-0.2,0.1-0.5,0.2-0.7,0.3s-0.5,0.2-0.7,0.3s-0.5,0.2-0.7,0.3c-0.2,0.1-0.4,0.2-0.7,0.3c-0.2,0.1-0.4,0.3-0.6,0.4l0,0
						c0.3-0.3,0.6-0.5,0.9-0.7c0.3-0.2,0.7-0.3,1.1-0.4l0,0l0.3-0.1l0,0.4c0,0.1,0,0.3,0,0.4s0,0.2,0,0.3l-0.4-0.2
						c0.5-0.2,1.1-0.5,1.6-0.7c0.6-0.2,1.1-0.4,1.7-0.6l0.4-0.1l0,0.4c0,0.2,0,0.4,0,0.6l-0.5-0.2c0.5-0.4,1-0.8,1.6-1
						c0.6-0.3,1.2-0.5,1.8-0.6l0.4-0.1L34.5,33c0,0.1,0,0.2,0,0.3c0,0.1,0,0.3-0.1,0.4L34,33.4c0.6-0.3,1.3-0.6,2-0.8l0.4-0.1l0,0.4
						c0,0.1,0,0.2,0,0.3c0,0.1,0,0.3,0,0.4l-0.5-0.2c1-1,2.4-1.5,3.7-1.4l0.4,0l-0.1,0.3c0,0.1,0,0.1,0,0.2c0,0.1,0,0.1,0,0.2
						s0,0.2,0,0.2c0,0.1,0,0.2-0.1,0.3l-0.2-0.4c0.2,0,0.4,0,0.6-0.1c0.2-0.1,0.4-0.2,0.6-0.4c0.1-0.1,0.2-0.2,0.3-0.2
						c0.1-0.1,0.2-0.2,0.3-0.3c0.2-0.2,0.3-0.4,0.5-0.6s0.3-0.4,0.5-0.6c0.2-0.2,0.4-0.4,0.6-0.5c0.2-0.2,0.5-0.3,0.8-0.4
						c0.3-0.1,0.6-0.1,0.9,0l0.4,0.1l-0.3,0.3c-0.4,0.4-0.8,0.9-1.1,1.4c-0.3,0.5-0.6,1-0.9,1.5c-0.3,0.6-0.6,1.1-1,1.5
						c-0.2,0.2-0.4,0.5-0.7,0.6c-0.3,0.2-0.6,0.3-0.9,0.4l0.2-0.1c0,0,0,0,0,0.1c0,0,0,0.1,0,0.1c0,0.1,0.1,0.1,0.1,0.2l0.2,0.2
						l-0.2,0.2C40,36.7,39.5,37,39,37.2c-0.5,0.2-1,0.3-1.6,0.3l0.2-0.3c0,0.1,0.1,0.2,0.1,0.4s0.1,0.2,0.1,0.3L38,38l-0.2,0.1
						c-0.7,0.2-1.4,0.4-2.1,0.5c-0.7,0.1-1.4,0.1-2.1,0l0.3-0.3c0,0.1,0.1,0.2,0.1,0.3c0,0,0,0.1,0.1,0.2c0,0.1,0,0.1,0.1,0.2
						l0.1,0.3h-0.3c-0.7,0-1.3-0.1-2-0.2c-0.7-0.1-1.3-0.3-1.9-0.5l0.3-0.2c0,0.1,0,0.3,0.1,0.5c0,0.2,0.1,0.3,0.1,0.5l0,0l0,0.4
						l-0.3-0.1c-0.4-0.2-0.9-0.3-1.3-0.5s-0.8-0.4-1.3-0.6s-0.8-0.4-1.2-0.6c-0.4-0.2-0.8-0.4-1.2-0.7c0.4,0.2,0.8,0.4,1.2,0.6
						c0.4,0.2,0.9,0.3,1.3,0.5s0.9,0.3,1.3,0.5s0.9,0.3,1.3,0.4L30,39.3l0,0c0-0.1,0-0.3-0.1-0.5c0-0.2-0.1-0.3-0.1-0.5l0-0.4
						l0.4,0.1c0.6,0.2,1.2,0.4,1.8,0.5c0.6,0.1,1.2,0.2,1.9,0.2L33.6,39c0-0.1-0.1-0.2-0.1-0.3c0,0,0-0.1-0.1-0.2
						c0-0.1,0-0.1-0.1-0.2l-0.1-0.3l0.3,0c0.7,0.1,1.3,0.1,2,0c0.7-0.1,1.3-0.3,2-0.5L37.5,38c0-0.1-0.1-0.2-0.1-0.3
						s-0.1-0.2-0.1-0.3l-0.1-0.4l0.4,0c0.5,0,0.9-0.1,1.4-0.2c0.4-0.2,0.9-0.4,1.2-0.7l0,0.4c-0.1-0.1-0.1-0.1-0.1-0.2
						c0-0.1-0.1-0.1-0.1-0.2c0-0.1,0-0.2-0.1-0.2c0-0.1,0-0.2,0-0.3l0-0.1l0.1,0c0.5-0.2,1-0.5,1.3-0.9c0.4-0.4,0.7-0.9,1-1.4
						c0.3-0.5,0.6-1.1,0.9-1.6c0.3-0.5,0.7-1,1.1-1.5l0.1,0.4c-0.4-0.1-0.9,0-1.3,0.3c-0.4,0.3-0.7,0.6-1,1
						c-0.2,0.2-0.3,0.4-0.5,0.6c-0.1,0.1-0.2,0.2-0.3,0.3c-0.1,0.1-0.2,0.2-0.3,0.3c-0.2,0.2-0.5,0.3-0.7,0.4
						c-0.3,0.1-0.6,0.2-0.9,0.2l-0.4,0l0.1-0.3c0-0.1,0-0.1,0-0.2c0-0.1,0-0.1,0-0.2s0-0.2,0-0.2c0-0.1,0-0.2,0.1-0.3l0.2,0.4
						c-1.2-0.1-2.4,0.4-3.3,1.3l-0.5,0.5l0.1-0.8c0-0.1,0-0.2,0-0.3c0-0.1,0-0.3,0-0.4l0.3,0.3c-0.7,0.2-1.3,0.4-1.9,0.7l-0.5,0.3
						l0.1-0.6c0-0.1,0-0.2,0-0.3c0-0.1,0-0.3,0.1-0.4l0.3,0.3c-0.6,0.1-1.2,0.3-1.7,0.6c-0.5,0.3-1,0.6-1.5,1l-0.4,0.3l-0.1-0.5
						c0-0.1,0-0.2,0-0.3c0-0.1,0-0.2,0-0.4l0.3,0.3c-0.6,0.1-1.1,0.3-1.6,0.6c-0.5,0.2-1.1,0.5-1.6,0.7l-0.4,0.2l0-0.4
						c0-0.1,0-0.3,0-0.4s0-0.2,0-0.3l0.3,0.3l0,0c-0.4,0-0.7,0.1-1.1,0.1c-0.4,0.1-0.7,0.2-1,0.4l0,0c0.2-0.2,0.4-0.3,0.6-0.4
						c0.1-0.1,0.2-0.1,0.3-0.2s0.2-0.2,0.3-0.2c0.2-0.2,0.4-0.3,0.6-0.5c0.2-0.1,0.4-0.3,0.6-0.4c0.4-0.2,0.9-0.5,1.3-0.7
						s0.9-0.5,1.3-0.7l-0.1,0.4l0,0c0-0.1-0.1-0.2-0.1-0.3c0-0.1,0-0.1-0.1-0.2l-0.2-0.4l0.5-0.1c0.6-0.1,1.2-0.2,1.8-0.5
						c0.6-0.2,1.1-0.6,1.6-1l0,0.5c-0.1-0.1-0.3-0.2-0.5-0.3L32.6,30l0.8-0.3c0.5-0.2,1-0.5,1.4-0.8c0.4-0.3,0.8-0.7,1.2-1.2
						l0.2,0.5c-0.4-0.1-0.8-0.2-1.2-0.3l-1-0.3l1-0.3c0.7-0.2,1.3-0.5,2-0.9c0.6-0.4,1.1-0.9,1.6-1.4l0.1,0.5
						c-0.1-0.1-0.3-0.1-0.4-0.2c-0.1-0.1-0.2-0.1-0.3-0.2l-0.5-0.2l0.5-0.3c0.4-0.3,0.7-0.5,1-0.8c0.3-0.3,0.6-0.6,0.9-1l0.2,0.5
						c-0.2,0-0.4-0.1-0.6-0.1c-0.2-0.1-0.4-0.1-0.6-0.2l-0.4-0.2l0.3-0.3c0.5-0.4,0.9-0.9,1.3-1.5c0.4-0.5,0.7-1.1,0.9-1.7l0.4,0.4
						c-0.1,0-0.2,0-0.3,0c-0.1,0-0.2,0-0.3-0.1c-0.1,0-0.1-0.1-0.2-0.1s-0.1,0-0.2-0.1l-0.6-0.2l0.6-0.4c0.8-0.5,1.4-1.2,1.7-2.1
						c0.1-0.2,0.2-0.4,0.2-0.6c0.1-0.2,0.1-0.4,0.1-0.7c0-0.2,0-0.5,0-0.7c0-0.1,0-0.2,0-0.3l0,0c0,0.1,0.1,0.2,0.3,0.2
						c0.1,0,0.1,0,0.2-0.1c0,0,0.1-0.1,0.1-0.2c0,0,0,0,0,0l0,0v0v0c0,0,0,0.1,0,0.1c0,0.3-0.1,0.6-0.2,0.8
						c-0.1,0.3-0.3,0.5-0.5,0.7c-0.4,0.4-0.8,0.7-1.3,0.9c-0.4,0.2-0.9,0.4-1.3,0.7c-0.4,0.2-0.7,0.5-1,0.9l-0.5,0.7l-0.1-0.8
						c0-0.4-0.1-0.7-0.1-1.1l0.5,0.2c-0.4,0.4-0.8,0.8-1.2,1.2c-0.4,0.4-0.7,0.9-1,1.4l-0.3,0.6l-0.2-0.6c-0.1-0.2-0.1-0.5-0.1-0.8
						c0-0.2,0-0.5,0-0.7l0.5,0.2c-0.4,0.4-0.8,0.8-1.1,1.3c-0.3,0.5-0.6,0.9-0.7,1.5l-0.3,1l-0.2-1.1c-0.1-0.5-0.2-1-0.3-1.5
						l0.5,0.1c-0.4,0.5-0.7,1-0.9,1.5c-0.3,0.5-0.5,1.1-0.7,1.6L32,23.8L31.8,23c-0.1-0.2-0.1-0.4-0.2-0.6s-0.2-0.4-0.3-0.7l0.5,0.1
						c-0.4,0.5-0.8,1.1-1.1,1.7c-0.3,0.6-0.5,1.3-0.6,1.9l-0.2,0.8l-0.3-0.8c-0.1-0.2-0.2-0.4-0.3-0.7c-0.1-0.2-0.1-0.5-0.2-0.7
						l0.4,0.1c-0.5,0.5-0.9,1.1-1.1,1.7c-0.3,0.6-0.5,1.3-0.5,2l-0.1,1.2l-0.4-1.2c-0.1-0.2-0.1-0.4-0.2-0.5S27.1,27.2,27,27
						l0.4,0.1c-0.5,0.5-0.9,1.1-1.2,1.7c-0.2,0.3-0.3,0.6-0.4,1c-0.1,0.3-0.2,0.7-0.3,1l0,0.3l-0.2-0.2c-0.1,0-0.1-0.1-0.1-0.1
						s-0.1-0.1-0.1-0.1l0.2,0c-0.1,0.2-0.3,0.4-0.4,0.6s-0.3,0.4-0.4,0.6s-0.2,0.4-0.4,0.6S23.9,32.7,23.8,32.9"/>
				</g>
				<g>
					<path class="st4" d="M26,37.5c0.5,0.2,1,0.4,1.5,0.7l1,0.5l-1.2-0.1c0,0-0.1,0-0.1,0c0,0-0.1,0-0.1,0L27,38.3
						c0.5,0.2,0.9,0.5,1.2,0.8l0.3,0.3l-0.4,0.1c-0.2,0-0.3,0.1-0.4,0.1l0-0.4c0.4,0.2,0.8,0.4,1.1,0.6c0.3,0.3,0.7,0.6,0.9,0.9
						l0.3,0.4l-0.5,0c-0.2,0-0.4,0-0.6,0.1l0-0.4c0.4,0.2,0.8,0.5,1.1,0.8c0.3,0.3,0.6,0.7,0.8,1.1l0.2,0.5l-0.5-0.1l-0.9-0.2
						l0.2-0.4c0.8,1.1,1.2,2.5,1,3.9l0,0.3l-0.2-0.1c-0.9-0.2-1.7-0.6-2.5-1.1c-0.7-0.5-1.4-1.1-1.9-1.9l0.4,0c0,0,0,0.1-0.1,0.1
						c0,0.1,0,0.1-0.1,0.2s0,0.1-0.1,0.2c0,0.1-0.1,0.1-0.1,0.2l-0.1,0.3l-0.2-0.2c-0.7-0.7-1.2-1.5-1.4-2.5l0.4,0.1l-0.3,0.4
						l-0.2,0.3l-0.2-0.4c-0.2-0.4-0.3-0.8-0.4-1.2c-0.1-0.4-0.2-0.8-0.2-1.3l0.4,0.1c0,0-0.1,0.1-0.1,0.1c0,0.1-0.1,0.1-0.1,0.2l0,0
						l-0.3,0.4l-0.1-0.5c-0.2-0.8-0.2-1.7-0.2-2.5c0.1,0.8,0.3,1.6,0.6,2.4l-0.4-0.1l0,0c0,0,0.1-0.1,0.1-0.1c0-0.1,0.1-0.1,0.1-0.2
						l0.4-0.4l0.1,0.6c0,0.4,0.1,0.8,0.2,1.2c0.1,0.4,0.2,0.8,0.4,1.2L24.5,42l0.3-0.4l0.3-0.4l0.1,0.5c0.2,0.8,0.6,1.6,1.3,2.2
						L26.1,44c0,0,0-0.1,0.1-0.1c0-0.1,0-0.1,0.1-0.2s0-0.1,0.1-0.2c0-0.1,0.1-0.2,0.1-0.2l0.2-0.3l0.2,0.3c0.5,0.7,1.1,1.3,1.8,1.7
						c0.7,0.5,1.5,0.8,2.3,1l-0.3,0.2c0.2-1.3-0.2-2.6-0.9-3.6L29.3,42l0.6,0.2l0.9,0.2l-0.3,0.3c-0.2-0.4-0.4-0.7-0.7-1
						c-0.3-0.3-0.6-0.5-1-0.7l-0.4-0.2l0.5-0.2c0.2-0.1,0.5-0.1,0.7-0.1l-0.2,0.4c-0.5-0.6-1.1-1.1-1.9-1.4l-0.7-0.3l0.7-0.2
						c0.2,0,0.3-0.1,0.4-0.1l-0.1,0.4c-0.3-0.3-0.7-0.5-1.1-0.7l-0.3-0.1l0.3-0.2c0.1-0.1,0.2-0.1,0.3-0.2c0.1,0,0.2,0,0.3,0
						l-0.2,0.4l0,0C26.8,38.2,26.4,37.8,26,37.5"/>
				</g>
				<g>
					<path class="st4" d="M25.2,37.1c0.3,0.2,0.6,0.5,1,0.7c0.3,0.3,0.6,0.5,1,0.7c0.1,0,0.1-0.1,0.1-0.1c-0.3-0.2-0.6-0.4-0.9-0.6
						C25.9,37.5,25.5,37.3,25.2,37.1L25.2,37.1"/>
				</g>
				<g>
					<path class="st4" d="M26,37.5c0.2,0.2,0.5,0.4,0.8,0.5c0,0,0,0,0,0C26.6,37.8,26.3,37.6,26,37.5"/>
				</g>
				<g>
					<path class="st4" d="M26.2,37.7c0,0.1,0.1,0.1,0.2,0.1c0.1,0.1,0.1,0.1,0.2,0.1c0,0,0,0,0,0c0,0,0,0,0,0
						c-0.1-0.1-0.1-0.1-0.2-0.1C26.3,37.7,26.3,37.7,26.2,37.7C26.2,37.6,26.2,37.6,26.2,37.7C26.2,37.7,26.2,37.7,26.2,37.7"/>
				</g>
				<g>
					<path class="st4" d="M26.3,37.7l0.1,0.1l0,0C26.3,37.7,26.3,37.7,26.3,37.7C26.2,37.7,26.2,37.7,26.3,37.7
						c0,0.1,0.1,0.1,0.2,0.2c0,0,0,0,0,0C26.4,37.8,26.3,37.7,26.3,37.7L26.3,37.7c0,0,0.1,0.1,0.1,0.1c0,0,0,0,0,0L26.3,37.7
						L26.3,37.7"/>
				</g>
				<g>
					<path class="st4" d="M26.2,37.6C26.2,37.7,26.2,37.7,26.2,37.6l0.2,0.1l0-0.1C26.3,37.7,26.3,37.6,26.2,37.6
						C26.1,37.6,26.1,37.7,26.2,37.6l0.1,0.2c0.1,0,0.1,0,0-0.1C26.4,37.7,26.3,37.7,26.2,37.6C26.3,37.7,26.3,37.7,26.2,37.6
						c0,0.1,0,0.1,0.1,0.1c0,0,0.1,0.1,0.1,0.1l0-0.1L26.2,37.6L26.2,37.6c0,0.1,0.1,0.1,0.2,0.1c0,0,0.1,0,0-0.1L26.2,37.6
						C26.3,37.6,26.2,37.6,26.2,37.6L26.2,37.6"/>
				</g>
				<g>
					<path class="st4" d="M41.1,33.5c-0.7,0.8-1.7,1.4-2.7,1.7c-1.1,0.3-2.2,0.6-3.4,0.9c-2.5,0.5-5.1,0.6-7.7,0.3
						c-1.4-0.3-2.8-0.4-4.3-0.3c-0.3,0-0.3,0.5,0,0.4c1.4-0.1,2.7,0,4.1,0.2c1.3,0.2,2.6,0.3,3.9,0.2c1.3-0.1,2.6-0.2,3.8-0.5
						c1.2-0.2,2.4-0.6,3.5-1C39.5,35,40.4,34.4,41.1,33.5L41.1,33.5"/>
				</g>
				<g>
					<path class="st4" d="M22.9,36.5c0.2,0.1,0.4,0.3,0.5,0.4c0.1,0.2,0.3,0.3,0.4,0.5c0.3,0.4,0.6,0.7,0.9,1.1
						c0.6,0.8,1.1,1.5,1.6,2.3c0.5,0.8,1.1,1.5,1.6,2.2c0.5,0.7,1.2,1.4,1.9,2c0,0,0,0,0,0c-1.3-1.4-2.5-3-3.4-4.7
						c-0.5-0.8-1-1.6-1.6-2.4c-0.3-0.4-0.5-0.7-0.8-1.1c-0.3-0.3-0.6-0.7-1-0.7c-0.1,0-0.2,0.1-0.2,0.2
						C22.9,36.4,22.9,36.5,22.9,36.5"/>
				</g>
				<g>
					<path class="st4" d="M28.9,41.8c-0.2-0.2-0.4-0.3-0.6-0.5c-0.2-0.2-0.4-0.3-0.7-0.3c0,0-0.1,0-0.1,0.1c0,0,0,0,0,0
						c0.2,0.2,0.3,0.3,0.6,0.3C28.3,41.6,28.6,41.7,28.9,41.8L28.9,41.8"/>
				</g>
				<g>
					<path class="st4" d="M27.9,40.5c-0.3-0.2-0.5-0.4-0.8-0.5c-0.2-0.1-0.5-0.3-0.7-0.2c0,0-0.1,0.1-0.1,0.1c0,0,0,0,0,0
						c0.1,0.2,0.4,0.2,0.6,0.3C27.2,40.3,27.6,40.4,27.9,40.5C27.9,40.5,27.9,40.5,27.9,40.5C27.9,40.5,27.9,40.5,27.9,40.5"/>
				</g>
				<g>
					<path class="st4" d="M26.6,39c-0.2-0.2-0.3-0.3-0.5-0.4c-0.1-0.1-0.3-0.1-0.5-0.1c0,0,0,0,0,0.1c0,0,0,0,0,0
						c0.1,0.1,0.3,0.2,0.4,0.2C26.2,38.9,26.4,39,26.6,39C26.6,39.1,26.6,39.1,26.6,39"/>
				</g>
				<g>
					<path class="st4" d="M28.3,44.4c-0.2-0.4-0.4-0.9-0.5-1.3c-0.1-0.4-0.3-0.8-0.6-1.2c0,0-0.1,0-0.1,0
						C27.3,42.8,27.7,43.7,28.3,44.4L28.3,44.4"/>
				</g>
				<g>
					<path class="st4" d="M26.5,42.5c0-0.6-0.1-1.1-0.3-1.7c-0.1-0.5-0.3-1-0.6-1.5c0,0-0.1,0-0.1,0c0.1,0.5,0.3,1,0.5,1.5
						C26.3,41.4,26.4,42,26.5,42.5L26.5,42.5"/>
				</g>
				<g>
					<path class="st4" d="M25.1,40.8c0.1-0.9,0-1.8-0.4-2.6c-0.2-0.4-0.4-0.8-0.7-1.1c-0.1-0.2-0.3-0.3-0.4-0.5
						c-0.2-0.1-0.4-0.2-0.6-0.3c0,0-0.1,0,0,0.1c0.1,0.2,0.2,0.4,0.4,0.5s0.3,0.3,0.4,0.5c0.2,0.3,0.4,0.7,0.6,1
						C24.7,39.1,25,40,25.1,40.8C25.1,40.8,25.1,40.8,25.1,40.8"/>
				</g>
				<g>
					<path class="st4" d="M26.5,42.1c-0.2-0.7-0.4-1.5-0.7-2.2c-0.3-0.7-0.7-1.4-1.2-1.9c0,0-0.1,0-0.1,0.1c0.3,0.7,0.7,1.2,1,1.9
						C25.9,40.6,26.2,41.3,26.5,42.1L26.5,42.1"/>
				</g>
				<g>
					<path class="st4" d="M27.6,42.9c-0.3-1.2-1-2.4-1.8-3.3c0,0,0,0,0,0c0.4,0.5,0.7,1,1,1.6C27,41.8,27.3,42.4,27.6,42.9
						L27.6,42.9"/>
				</g>
				<g>
					<path class="st4" d="M38.9,36.3c-0.4,0-0.7-0.1-1.1-0.2c-0.3-0.1-0.6-0.1-0.9-0.2c-0.5-0.1-1.1,0-1.5,0.2c0,0,0,0.1,0,0.1
						c0.3,0,0.6,0,0.9,0.1c0.3,0,0.6,0.1,1,0.1c0.3,0.1,0.5,0.1,0.8,0.1C38.4,36.5,38.6,36.4,38.9,36.3L38.9,36.3"/>
				</g>
				<g>
					<path class="st4" d="M36.6,37.2c-0.7,0.2-1.4-0.4-2.1-0.6c-0.6-0.3-1.2-0.3-1.8-0.1c0,0,0,0,0,0c0,0,0,0,0,0
						C34.1,36.6,35.3,37.9,36.6,37.2L36.6,37.2"/>
				</g>
				<g>
					<path class="st4" d="M33.3,37.8c-0.4,0-0.9-0.2-1.2-0.4c-0.3-0.2-0.6-0.3-1-0.5c-0.3-0.1-0.7-0.2-1-0.3c-0.4,0-0.8,0-1.1,0
						c0,0-0.1,0.1,0,0.1c0.4,0.1,0.8,0.2,1.2,0.3c0.4,0.1,0.8,0.2,1.2,0.4C31.9,37.8,32.6,37.9,33.3,37.8L33.3,37.8"/>
				</g>
				<g>
					<path class="st4" d="M29.4,37.9c-0.9-0.4-1.8-0.9-2.6-1.4c-0.9-0.4-1.9-0.5-2.9-0.2c0,0,0,0,0,0.1c0,0,0,0,0,0
						c0.3,0,0.5,0,0.8,0c0.3,0,0.5,0.1,0.8,0.1c0.5,0.1,1,0.3,1.5,0.5C27.7,37.6,28.5,37.9,29.4,37.9"/>
				</g>
				<g>
					<path class="st4" d="M38.7,33.7c-0.3,0.1-0.7,0.3-0.9,0.5c-0.4,0.3-0.7,0.6-0.9,1c0,0,0,0.1,0,0.1c0,0,0,0,0.1,0
						c0.3-0.2,0.6-0.4,0.9-0.7C38.1,34.4,38.3,33.9,38.7,33.7"/>
				</g>
				<g>
					<path class="st4" d="M35.5,34.7c-0.4,0.1-0.7,0.2-1,0.3c-0.3,0.2-0.6,0.4-0.8,0.7c0,0,0,0.1,0,0.1c0.3-0.1,0.6-0.3,0.9-0.4
						C35,35.2,35.2,34.9,35.5,34.7"/>
				</g>
				<g>
					<path class="st4" d="M33.3,34.5c-0.3,0.1-0.6,0.3-0.9,0.5c-0.3,0.2-0.5,0.5-0.7,0.8c0,0,0,0.1,0,0c0.3-0.2,0.6-0.4,0.8-0.6
						S33,34.7,33.3,34.5"/>
				</g>
				<g>
					<path class="st4" d="M30.7,35.3c-0.3,0.1-0.5,0.1-0.8,0.1c-0.2,0.1-0.4,0.2-0.6,0.4c-0.1,0,0,0.2,0,0.1c0.2,0,0.5,0,0.7-0.1
						C30.3,35.7,30.5,35.5,30.7,35.3C30.7,35.3,30.7,35.3,30.7,35.3"/>
				</g>
				<g>
					<path class="st4" d="M28.8,35.5c-0.4,0.2-0.9,0.3-1.4,0.3c0,0-0.1,0-0.1,0.1c0,0,0,0.1,0.1,0.1C27.9,36.1,28.5,35.9,28.8,35.5
						L28.8,35.5"/>
				</g>
				<g>
					<path class="st4" d="M25.5,29.7c0,0.2-0.1,0.4-0.2,0.5l0.2,0c0-0.1,0-0.2,0-0.3l-0.2,0c0,0.1-0.1,0.3-0.2,0.4l0.3,0.1
						c0-0.1,0-0.3,0.1-0.4l-0.3,0c0,0.1,0,0.2,0,0.3l0.2,0.1C25.4,30,25.5,29.9,25.5,29.7l-0.2,0c0,0.2-0.1,0.4-0.2,0.5l0.2,0.1
						c0.1-0.3,0.2-0.6,0.2-0.9l-0.2,0c-0.1,0.3-0.1,0.5-0.2,0.8c0,0,0,0.1,0.1,0.1c0,0,0.1,0,0.1,0c0.1-0.3,0.2-0.5,0.3-0.8
						c0-0.1-0.1-0.1-0.2,0c-0.1,0.3-0.2,0.6-0.3,0.9c0,0.1,0,0.1,0.1,0.1c0.1,0,0.1,0,0.1-0.1C25.4,30,25.5,29.9,25.5,29.7
						c0,0,0-0.1,0-0.1c-0.1,0-0.1,0-0.2,0c-0.1,0.2-0.2,0.4-0.2,0.7c0,0.1,0.2,0.1,0.2,0c0-0.1,0.1-0.3,0.1-0.4c0-0.2-0.2-0.2-0.3,0
						c-0.1,0.2-0.1,0.4-0.1,0.6c0,0.1,0.1,0.1,0.2,0.1c0,0,0.1,0,0.1-0.1c0.1-0.2,0.1-0.4,0.1-0.6c0-0.1-0.2-0.1-0.2,0
						c0,0.1,0,0.3,0,0.4c0,0,0.1,0.1,0.1,0.1c0,0,0.1,0,0.1-0.1C25.6,30.1,25.6,29.8,25.5,29.7C25.6,29.6,25.6,29.6,25.5,29.7
						C25.5,29.6,25.5,29.6,25.5,29.7"/>
				</g>
				<g>
					<path class="st4" d="M40.9,17.9c-2.7,1.5-4.3,4.3-6.2,6.6c-2.2,2.5-4.5,4.8-7,7c-0.7,0.6-1.4,1.2-2.1,1.8
						c-0.7,0.6-1.4,1.3-2.1,2c0,0,0,0.1,0.1,0.1c0.7-0.5,1.4-1,2-1.5c0.6-0.5,1.2-1,1.8-1.5c1.3-1.1,2.5-2.2,3.7-3.4
						c1.2-1.2,2.3-2.4,3.4-3.6c1-1.2,1.9-2.4,2.9-3.7C38.3,20.1,39.5,18.9,40.9,17.9L40.9,17.9"/>
				</g>
				<g>
					<path class="st4" d="M29.3,32.4c-0.3-0.1-0.6-0.2-1-0.2c-0.3,0-0.7,0-1,0.1c-0.5,0.1-1,0.5-1.2,1c0,0.1,0.1,0.1,0.1,0.1
						c0.4-0.3,0.8-0.5,1.3-0.7c0.3-0.1,0.6-0.1,0.9-0.1C28.8,32.5,29,32.4,29.3,32.4C29.3,32.4,29.3,32.4,29.3,32.4"/>
				</g>
				<g>
					<path class="st4" d="M32.5,30.5c-0.5-0.2-1-0.3-1.6-0.3c-0.6,0-1.1,0.2-1.6,0.4c-0.5,0.2-1,0.4-1.4,0.7
						c-0.4,0.2-0.8,0.6-1.1,1.1c0,0.1,0.1,0.2,0.2,0.1c0.4-0.2,0.8-0.5,1.2-0.8c0.4-0.3,0.9-0.5,1.4-0.7c0.5-0.2,0.9-0.3,1.4-0.3
						C31.5,30.6,32,30.5,32.5,30.5C32.5,30.5,32.5,30.5,32.5,30.5C32.5,30.5,32.5,30.5,32.5,30.5"/>
				</g>
				<g>
					<path class="st4" d="M34.6,28.4c-0.5-0.2-1.1-0.2-1.7-0.2c-0.6,0.1-1.2,0.2-1.7,0.5c-1.1,0.4-1.9,1.2-2.5,2.1c0,0,0,0.1,0,0.1
						c0,0,0,0,0.1,0c0.8-0.8,1.7-1.4,2.7-1.8c0.5-0.2,1-0.3,1.5-0.4C33.5,28.6,34.1,28.5,34.6,28.4C34.6,28.4,34.6,28.4,34.6,28.4
						C34.6,28.4,34.6,28.4,34.6,28.4"/>
				</g>
				<g>
					<path class="st4" d="M37.3,25.5c-0.6-0.2-1.2-0.3-1.8-0.2c-0.6,0.1-1.2,0.4-1.8,0.7c-0.5,0.3-1,0.8-1.5,1.2
						c-0.5,0.4-0.9,1-1.3,1.5c0,0,0,0.1,0.1,0.1c0.5-0.4,0.9-0.8,1.3-1.2c0.5-0.4,1-0.8,1.5-1.1c0.5-0.3,1.1-0.6,1.7-0.8
						C36.1,25.6,36.7,25.5,37.3,25.5C37.3,25.5,37.3,25.5,37.3,25.5"/>
				</g>
				<g>
					<path class="st4" d="M38.8,23.3c-0.5-0.1-1-0.1-1.5-0.1c-0.5,0.1-1,0.3-1.5,0.6c-0.9,0.5-1.6,1.3-2.1,2.3c0,0,0,0,0,0s0,0,0,0
						l0,0c0.3-0.4,0.6-0.8,1-1.2c0.4-0.3,0.8-0.5,1.2-0.7c0.4-0.2,0.9-0.4,1.3-0.5C37.8,23.5,38.3,23.4,38.8,23.3"/>
				</g>
				<g>
					<path class="st4" d="M40.1,19.9c-0.4,0.3-0.9,0.7-1.4,1c-0.4,0.3-0.8,0.6-1.3,0.9c-0.8,0.5-1.4,1.2-1.8,2.1c0,0,0,0.1,0.1,0
						c0.6-0.8,1.4-1.5,2.2-2c0.4-0.3,0.8-0.5,1.2-0.8C39.5,20.6,39.8,20.3,40.1,19.9"/>
				</g>
				<g>
					<path class="st4" d="M37.4,19.3c-0.4,0.8-0.8,1.7-1.1,2.5c0,0.1,0.1,0.1,0.1,0.1C37.1,21.1,37.4,20.2,37.4,19.3L37.4,19.3"/>
				</g>
				<g>
					<path class="st4" d="M35.3,20.9l-0.1-0.1c0,0,0,0,0,0c0,0,0,0,0,0c-0.1,0.2-0.1,0.5-0.1,0.7c0,0.3-0.1,0.7-0.2,1
						c-0.1,0.6-0.3,1.3-0.6,1.8c0,0.1,0,0.1,0.1,0.1c0.4-0.5,0.7-1.1,0.9-1.7c0.1-0.3,0.1-0.6,0.1-0.9
						C35.5,21.5,35.5,21.1,35.3,20.9"/>
				</g>
				<g>
					<path class="st4" d="M33.1,23c-0.1,0.5-0.2,1.1-0.3,1.6c-0.2,0.5-0.4,1-0.5,1.5c0,0.1,0,0.1,0.1,0.1c0,0,0,0,0.1,0
						c0.4-0.4,0.7-0.9,0.7-1.5C33.3,24.2,33.3,23.6,33.1,23C33.1,23,33.1,23,33.1,23"/>
				</g>
				<g>
					<path class="st4" d="M31,24.6c-0.1,0.5-0.2,1-0.2,1.6c-0.1,0.5-0.3,1-0.4,1.5c0,0.1,0.1,0.1,0.2,0.1c0.4-0.4,0.6-1,0.7-1.6
						C31.4,25.6,31.3,25,31,24.6L31,24.6"/>
				</g>
				<g>
					<path class="st4" d="M29.1,26.4c-0.2,1.3-0.5,2.6-0.9,3.9c0,0.1,0,0.1,0.1,0.1c0,0,0.1,0,0.1,0c0.4-0.6,0.7-1.2,0.8-1.9
						C29.3,27.7,29.3,27,29.1,26.4L29.1,26.4"/>
				</g>
				<g>
					<path class="st4" d="M27.3,29.1c-0.2,0.4-0.3,0.8-0.4,1.3c-0.1,0.5-0.3,0.9-0.4,1.4c0,0.1,0,0.1,0.1,0.1c0,0,0.1,0,0.1,0
						c0.4-0.4,0.6-0.8,0.7-1.4C27.5,30,27.5,29.5,27.3,29.1C27.3,29.1,27.3,29.1,27.3,29.1C27.3,29.1,27.3,29.1,27.3,29.1"/>
				</g>
				<g>
					<path class="st4" d="M26.6,30.2c-0.1,0.4-0.2,0.7-0.3,1.1c0,0,0,0.1,0,0.1c0,0,0,0,0.1,0C26.5,31,26.6,30.6,26.6,30.2
						C26.6,30.2,26.6,30.2,26.6,30.2C26.6,30.2,26.6,30.2,26.6,30.2"/>
				</g>
				<g>
					<path class="st4" d="M32.5,24.2c0,0.4-0.1,0.9-0.3,1.2c0,0,0,0,0,0.1c0,0,0,0,0.1,0C32.5,25.1,32.6,24.6,32.5,24.2
						C32.5,24.2,32.5,24.2,32.5,24.2"/>
				</g>
				<g>
					<path class="st4" d="M30.5,26.1c-0.1,0.4-0.3,0.7-0.4,1c0,0,0,0.1,0.1,0.1c0,0,0,0,0.1,0C30.4,26.9,30.6,26.5,30.5,26.1
						C30.5,26.1,30.5,26.1,30.5,26.1C30.5,26.1,30.5,26.1,30.5,26.1"/>
				</g>
				<g>
					<path class="st4" d="M25.2,34.8c-0.4,0.2-0.9,0.4-1.3,0.6c-0.3,0.2-0.9,0.4-0.9,0.8c0,0.1,0,0.1,0.1,0.1
						c0.3,0.1,0.7-0.3,0.9-0.6C24.4,35.5,24.8,35.1,25.2,34.8C25.2,34.8,25.2,34.8,25.2,34.8"/>
				</g>
				<g>
					<path class="st4" d="M23.5,36c-0.2,0.1-0.3,0.2-0.5,0.4c0,0,0,0,0,0.1c0,0,0,0,0,0C23.2,36.3,23.4,36.2,23.5,36"/>
				</g>
				<g>
					<path class="st4" d="M28.1,33.2c-0.4-0.3-0.9-0.2-1.3,0.1c-0.1,0,0,0.2,0.1,0.1C27.3,33.2,27.7,33.1,28.1,33.2
						C28.1,33.2,28.1,33.2,28.1,33.2C28.1,33.2,28.1,33.2,28.1,33.2"/>
				</g>
				<g>
					<path class="st4" d="M31.7,38.2c-0.2-0.2-0.5-0.4-0.8-0.6c-0.3-0.2-0.7-0.3-1.1-0.4c0,0-0.1,0-0.1,0c0,0,0,0.1,0,0.1
						c0.3,0.2,0.7,0.3,1,0.5C31.1,38,31.4,38.1,31.7,38.2L31.7,38.2"/>
				</g>
				<g>
					<path class="st4" d="M35.2,37.7c-0.6-0.2-1.2-0.5-1.8-0.7c-0.1,0-0.1,0.1-0.1,0.1C33.8,37.6,34.5,37.9,35.2,37.7L35.2,37.7"/>
				</g>
				<g>
					<path class="st4" d="M37.2,36.8c-0.1-0.1-0.3-0.2-0.4-0.2c-0.2-0.1-0.4-0.2-0.6-0.2c-0.1,0-0.1,0-0.1,0.1c0,0,0,0.1,0,0.1
						c0.2,0.2,0.4,0.3,0.6,0.3C36.8,36.9,37.1,36.9,37.2,36.8L37.2,36.8"/>
				</g>
				<g>
					<path class="st4" d="M20.6,30.1c0-0.1,0.1-0.1,0.1-0.1c0,0,0,0,0,0c0,0.1,0,0.1,0,0.2c0,0.1,0.2,0.2,0.2,0c0-0.1,0-0.1,0-0.2
						l-0.2,0.1c0.1,0.1,0.1,0.2,0.3,0.1c0.1,0,0.1-0.1,0.1-0.2c0,0,0,0,0,0C21,30,20.8,30,20.8,30.2c0,0,0,0.1,0,0l0-0.1v0l0,0h0H21
						c0,0-0.1,0-0.1-0.1c-0.1-0.1-0.2,0-0.2,0.1c0,0.1,0,0.1,0,0.2l0.2-0.1c0-0.1-0.1-0.1-0.1-0.2c0,0-0.1-0.1-0.1-0.1
						C20.6,30,20.6,30.1,20.6,30.1C20.5,30.1,20.5,30.1,20.6,30.1C20.6,30.1,20.6,30.1,20.6,30.1"/>
				</g>
				<g>
					<path class="st4" d="M25.2,30.2C25.2,30.2,25.2,30.1,25.2,30.2c0-0.1,0-0.1,0-0.1c0,0,0,0,0,0c0,0-0.1,0.1-0.1,0.1
						c0,0,0,0-0.1,0.1l0.1,0.1C25.2,30.3,25.2,30.3,25.2,30.2L25.2,30.2C25.2,30.2,25.2,30.2,25.2,30.2
						C25.3,30.2,25.3,30.2,25.2,30.2L25.1,30c0,0.1-0.1,0.1,0,0.2c0,0.1,0.1,0.1,0.2,0.1c0.1,0,0.2-0.1,0.2-0.2c0,0,0,0,0,0
						C25.4,30.1,25.3,30.1,25.2,30.2c0.1-0.1,0.1,0,0.1,0c0,0,0,0,0,0c0-0.1,0-0.1-0.1-0.2c-0.1,0-0.1,0-0.2,0c0,0-0.1,0.1-0.1,0.1
						l0-0.1c0,0.1-0.1,0.1-0.1,0.2c0,0,0,0.1,0.1,0.1c0,0,0.1,0,0.1-0.1c0,0,0,0,0,0C25.2,30.3,25.2,30.2,25.2,30.2
						C25.2,30.2,25.2,30.1,25.2,30.2L25.2,30.2C25.2,30.1,25.2,30.1,25.2,30.2C25.2,30.2,25.2,30.2,25.2,30.2
						C25.2,30.2,25.2,30.2,25.2,30.2"/>
				</g>
				<g>
					<path class="st4" d="M27.2,26.8c-0.5,0.3-1,0.7-1.3,1.3c-0.4,0.5-0.6,1.1-0.6,1.7c0,0,0,0.1,0.1,0.1c0,0,0,0,0,0
						c0.3-0.5,0.5-1.1,0.8-1.6S26.9,27.3,27.2,26.8L27.2,26.8"/>
				</g>
				<g>
					<path class="st4" d="M18.8,27c0.3,0.5,0.7,0.9,1,1.4s0.5,1.1,0.8,1.6c0,0,0.1,0,0.1,0c0-0.6-0.2-1.3-0.6-1.8
						C19.8,27.6,19.3,27.2,18.8,27L18.8,27"/>
				</g>
				<g>
					<path class="st4" d="M23.1,3.3C23.1,5.2,23,7.1,22.9,9s0,3.8-0.1,5.7c0,3.8-0.1,7.5-0.1,11.2c0,1.1,0,2.1,0,3.2
						c0,1.1,0,2.1,0.1,3.2c0,0.1,0.2,0.2,0.3,0c0.1-0.9,0.1-1.9,0.1-2.8c0-1,0-1.9,0-2.9c0-1.9,0-3.7,0-5.6c0-3.8,0.1-7.6,0-11.4
						c0-1.1-0.1-2.1-0.1-3.2S23.2,4.3,23.1,3.3L23.1,3.3"/>
				</g>
				<g>
					<path class="st4" d="M23,33.6c0,0.2,0,0.4,0,0.6c0,0.2,0,0.5,0,0.7c0,0.5,0,1,0,1.4c0,0.1,0.1,0.1,0.1,0.1
						c0.1,0,0.1-0.1,0.1-0.1C23.2,35.4,23.1,34.4,23,33.6C23,33.5,23,33.5,23,33.6L23,33.6L23,33.6"/>
				</g>
				<g>
					<path class="st4" d="M20.4,26.8c0.6,0.4,1.2,1,1.6,1.7c0.2,0.3,0.4,0.6,0.5,1c0.1,0.2,0.1,0.4,0.2,0.5s0.2,0.3,0.3,0.5
						c0,0.1,0.1,0,0.1,0c0-0.2,0.1-0.4,0-0.6c0-0.2-0.1-0.4-0.2-0.6c-0.2-0.4-0.4-0.7-0.6-1.1C21.8,27.4,21.1,27,20.4,26.8
						C20.4,26.8,20.4,26.8,20.4,26.8"/>
				</g>
				<g>
					<path class="st4" d="M19.8,21.5c0.3,0.6,0.7,1.1,1,1.6c0.4,0.5,0.7,1,1,1.6c0.3,0.6,0.5,1.2,0.7,1.8c0.2,0.6,0.3,1.3,0.3,1.9
						c0,0,0,0,0,0c0.1-0.6,0.2-1.2,0.1-1.8c-0.1-0.7-0.4-1.3-0.7-1.9c-0.3-0.6-0.7-1.2-1.1-1.7C20.8,22.5,20.3,22,19.8,21.5
						L19.8,21.5"/>
				</g>
				<g>
					<path class="st4" d="M19.6,17.7c1.1,1,2,2.2,2.6,3.6c0.3,0.8,0.4,1.5,0.6,2.3c0.2,0.9,0.1,1.8-0.1,2.7c0,0,0,0,0,0s0,0,0,0
						c0.2-0.9,0.4-1.8,0.4-2.7c0-0.9-0.2-1.7-0.5-2.5c-0.3-0.7-0.7-1.4-1.2-2C20.9,18.6,20.3,18.1,19.6,17.7
						C19.6,17.7,19.6,17.7,19.6,17.7"/>
				</g>
				<g>
					<path class="st4" d="M19.7,12.6c0.1,1.6,1.5,2.6,2.3,3.9c0.4,0.8,0.7,1.8,0.7,2.7c0.1,1.1,0.1,2.1,0.1,3.2c0,0,0.1,0.1,0.1,0
						c0.2-1,0.3-2.1,0.3-3.2c0-0.9-0.3-1.8-0.6-2.6c-0.4-0.7-0.9-1.4-1.4-2C20.4,14.1,20,13.4,19.7,12.6
						C19.7,12.6,19.7,12.6,19.7,12.6"/>
				</g>
				<g>
					<path class="st4" d="M20.7,7.3c-0.3,1.7,1,3.2,1.6,4.7c0.3,0.9,0.5,1.7,0.6,2.6c0,0.4,0.1,0.9,0.2,1.3c0,0.5,0,1-0.1,1.5
						c0,0,0,0,0,0c0.1-0.5,0.2-0.9,0.2-1.4c0.1-0.4,0.1-0.8,0.1-1.2c0-0.9-0.2-1.8-0.5-2.6c-0.3-0.8-0.7-1.6-1.1-2.3
						C21.1,9.1,20.8,8.2,20.7,7.3C20.7,7.3,20.7,7.3,20.7,7.3"/>
				</g>
				<g>
					<path class="st4" d="M23.8,12.7c0-0.5,0.2-1,0.4-1.4c0.2-0.5,0.4-0.9,0.6-1.4c0.5-0.7,0.7-1.6,0.6-2.5c0,0,0,0-0.1,0
						c0,0,0,0,0,0c-0.2,1-0.6,1.9-1,2.8c-0.2,0.4-0.4,0.8-0.5,1.3C23.7,11.9,23.7,12.3,23.8,12.7L23.8,12.7"/>
				</g>
				<g>
					<path class="st4" d="M23.9,17.6c0.1-0.5,0.2-1,0.5-1.4c0.3-0.4,0.6-0.8,0.9-1.2c0.3-0.3,0.5-0.7,0.8-1c0.2-0.4,0.2-0.8,0.2-1.2
						c0,0-0.1-0.1-0.1,0c-0.1,0.5-0.4,0.9-0.7,1.3c-0.3,0.4-0.6,0.8-0.9,1.2c-0.3,0.3-0.5,0.7-0.7,1.1
						C23.8,16.8,23.7,17.2,23.9,17.6C23.9,17.7,23.9,17.7,23.9,17.6C23.9,17.7,23.9,17.7,23.9,17.6"/>
				</g>
				<g>
					<path class="st4" d="M23.7,22.3c0.1-0.5,0.3-1,0.6-1.4c0.3-0.4,0.5-0.8,0.8-1.1c0.6-0.6,1-1.3,1.2-2.1c0-0.1-0.1-0.1-0.1,0
						c-0.5,0.8-1.1,1.6-1.8,2.3C23.8,20.5,23.5,21.4,23.7,22.3C23.7,22.3,23.7,22.3,23.7,22.3"/>
				</g>
				<g>
					<path class="st4" d="M23.7,26.3c0.2-0.4,0.3-0.8,0.5-1.2c0.2-0.4,0.5-0.8,0.7-1.1c0.5-0.6,0.9-1.4,1-2.2c0,0,0,0,0,0
						c-0.4,0.9-0.9,1.7-1.5,2.3C24,24.7,23.4,25.6,23.7,26.3L23.7,26.3"/>
				</g>
				<g>
					<path class="st4" d="M23.8,29.6c0.1-0.6,0.3-1.1,0.7-1.6c0.3-0.5,0.7-0.9,1-1.4c0,0,0-0.1-0.1,0c-0.5,0.5-1,1-1.3,1.6
						C23.9,28.6,23.6,29,23.8,29.6L23.8,29.6"/>
				</g>
				<g>
					<path class="st4" d="M21.6,29.4l-0.1-0.1c0,0,0,0,0,0c0.4,0.3,0.6,0.7,0.7,1.2c0,0,0,0,0.1,0c0,0,0,0,0-0.1
						c0-0.3-0.1-0.5-0.2-0.8c-0.1-0.1-0.2-0.2-0.3-0.3C21.7,29.4,21.7,29.4,21.6,29.4C21.5,29.3,21.4,29.3,21.6,29.4"/>
				</g>
				<g>
					<path class="st4" d="M21.6,30c0,0.1,0.1,0.2,0.1,0.2c0,0.1,0.1,0.2,0.1,0.2c0.1,0.1,0.2,0,0.1-0.1c-0.1-0.1-0.1-0.1-0.2-0.2
						C21.8,30.1,21.7,30,21.6,30L21.6,30"/>
				</g>
				<g>
					<path class="st4" d="M24.9,28.5c0.1-0.1,0.1-0.2,0.2-0.2c0,0,0-0.1-0.1-0.1c-0.4,0.2-0.6,0.6-0.8,1c-0.2,0.4-0.3,0.8-0.4,1.2
						c0,0,0,0.1,0.1,0.1c0,0,0.1,0,0.1,0c0.2-0.4,0.4-0.8,0.6-1.2c0.2-0.3,0.4-0.7,0.6-1.1l-0.1,0C25,28.3,25,28.4,24.9,28.5
						C24.9,28.5,24.9,28.5,24.9,28.5"/>
				</g>
				<g>
					<path class="st4" d="M21.2,24.6c0.3,0.5,0.6,1.1,0.8,1.7c0,0.1,0.2,0.1,0.2,0C22.1,25.6,21.7,25,21.2,24.6L21.2,24.6"/>
				</g>
				<g>
					<path class="st4" d="M19.9,19.1c0.9,1,1.6,2.2,2,3.4c0,0,0,0,0.1,0s0,0,0-0.1C21.7,21.1,21,19.9,19.9,19.1
						C19.9,19,19.9,19,19.9,19.1"/>
				</g>
				<g>
					<path class="st4" d="M20.1,14.9c0.8,1,1.4,2.1,2,3.2c0,0,0.1,0.1,0.1,0c0,0,0-0.1,0-0.1C21.9,16.8,21.1,15.7,20.1,14.9
						L20.1,14.9"/>
				</g>
				<g>
					<path class="st4" d="M20.7,11c0.7,0.9,1.3,2,1.7,3.1c0,0.1,0.2,0.1,0.2,0C22.4,12.9,21.7,11.7,20.7,11C20.7,11,20.7,11,20.7,11
						"/>
				</g>
				<g>
					<path class="st4" d="M23.3,33.7c0.5-0.6,0.9-1.2,1.3-1.8c0.2-0.3,0.4-0.6,0.6-0.9c0.2-0.3,0.3-0.6,0.4-0.9
						c0-0.1-0.1-0.1-0.2-0.1c-0.2,0.3-0.4,0.5-0.5,0.8c-0.2,0.3-0.3,0.7-0.5,1C24,32.5,23.6,33.1,23.3,33.7L23.3,33.7"/>
				</g>
				<g>
					<path class="st4" d="M23.6,33.2c0.3-0.4,0.5-0.8,0.7-1.2c0.2-0.4,0.4-0.7,0.6-1.1c0-0.1-0.1-0.1-0.1,0
						c-0.2,0.4-0.5,0.8-0.6,1.2C24,32.4,23.8,32.8,23.6,33.2C23.6,33.2,23.6,33.2,23.6,33.2"/>
				</g>
				<g>
					<path class="st4" d="M20.7,30.3c0.2,0.3,0.3,0.6,0.4,1s0.4,0.6,0.6,0.9s0.4,0.6,0.6,0.9s0.4,0.6,0.5,0.9c0,0,0,0,0,0
						c0,0,0,0,0,0c-0.1-0.3-0.3-0.6-0.5-0.9s-0.3-0.6-0.4-0.9c-0.2-0.3-0.3-0.6-0.5-0.9C21.2,30.9,20.9,30.6,20.7,30.3
						C20.7,30.3,20.7,30.3,20.7,30.3C20.7,30.3,20.7,30.3,20.7,30.3L20.7,30.3"/>
				</g>
				<g>
					<path class="st4" d="M22.5,38.4c-0.1,1-0.1,2-0.2,3c-0.1,1-0.2,2-0.3,3.1c-0.2,1.8-0.1,3.7,0.5,5.5c0.1,0.3,0.5,0.2,0.4-0.1
						c-0.6-1.8-0.7-3.7-0.5-5.6C22.7,42.4,23.1,40.3,22.5,38.4C22.6,38.4,22.5,38.4,22.5,38.4C22.5,38.4,22.5,38.4,22.5,38.4"/>
				</g>
				<g>
					<path class="st4" d="M23.9,40.1c0,0.2-0.1,0.4-0.1,0.7c0,0.2,0,0.4,0,0.6c0,0.4,0,0.8,0,1.2c0,0.8,0.1,1.6,0.1,2.4
						c0.1,1.3,0.6,2.6,1.4,3.7c0.2,0.2,0.5-0.1,0.4-0.3c-0.8-1.1-1.3-2.4-1.4-3.8c-0.1-0.8-0.1-1.5-0.2-2.3c0-0.4,0-0.8,0-1.1
						c0-0.2,0-0.4-0.1-0.6C24,40.5,24,40.3,23.9,40.1L23.9,40.1"/>
				</g>
				<g>
					<path class="st4" d="M22.8,50.2c0.4,0.4,1.2,0.3,1.6,0.1c0.6-0.2,1-0.7,1.3-1.2c0.1-0.2,0-0.5-0.2-0.6c-0.3-0.1-0.6-0.1-0.8,0
						c-0.6,0.2-1.1,0.6-1.4,1.1c0,0,0,0,0,0c0.3-0.3,0.7-0.5,1.1-0.6c0.2-0.1,0.4-0.1,0.6-0.2c0.3,0,0.2,0.1,0.1,0.3
						c-0.4,0.7-1.3,1-2.1,0.8c-0.1-0.1-0.2,0-0.3,0.1C22.7,50.1,22.7,50.2,22.8,50.2"/>
				</g>
				<g>
					<path class="st4" d="M25.4,48.6C25.4,48.6,25.4,48.5,25.4,48.6c0,0,0,0.1,0,0.1c0,0.1,0,0.2,0,0.3c0,0.2-0.1,0.4-0.2,0.5
						c0,0,0,0,0,0.1c0,0,0,0,0.1,0c0.3-0.1,0.6-0.4,0.6-0.8c0-0.2-0.1-0.4-0.3-0.4C25.5,48.4,25.4,48.5,25.4,48.6
						C25.4,48.6,25.4,48.6,25.4,48.6C25.4,48.6,25.4,48.6,25.4,48.6"/>
				</g>
				<g>
					<path class="st4" d="M23.3,50.2c0.1-0.2,0.4-0.4,0.6-0.6c0.3-0.2,0.5-0.4,0.8-0.6c0.1,0,0.1-0.1,0.2-0.1c0.1,0-0.1,0.1-0.1,0.1
						l-0.4,0.3l-0.9,0.5l0.2,0.3c0.5-0.5,1.2-0.7,1.6-1.3c0.1-0.2-0.1-0.4-0.3-0.2c-0.3,0.3-0.7,0.6-0.9,1c-0.1,0.1,0,0.2,0.1,0.2
						c0.4-0.2,0.8-0.5,1.1-0.9L25,48.7c-0.3,0.6-1,0.8-1.5,1.2c-0.1,0.1-0.1,0.2,0,0.3c0.1,0.1,0.1,0.1,0.2,0c0.5-0.3,1.1-0.6,1.6-1
						c0.3-0.2,0.3-0.6-0.1-0.7s-0.9,0.4-1.2,0.6S23.2,49.8,23.3,50.2C23.3,50.2,23.3,50.2,23.3,50.2"/>
				</g>
				<g>
					<path class="st4" d="M23.8,39.8c-0.1,0.4-0.3,0.9-0.4,1.3s-0.3,0.8-0.5,1.3c-0.4,0.8-0.5,1.7-0.4,2.6c0,0,0,0,0,0
						c0-1,0.3-2,0.9-2.8C23.8,41.5,24,40.6,23.8,39.8C23.8,39.8,23.8,39.8,23.8,39.8C23.8,39.8,23.8,39.8,23.8,39.8"/>
				</g>
				<g>
					<path class="st4" d="M21.6,38c0.2-0.2,0.7-0.5,0.8-0.1c0.1,0.2,0.1,0.5,0.1,0.7c0,0.5,0.1,0.9,0.1,1.4c0,0,0,0,0,0c0,0,0,0,0,0
						c0.1-0.4,0.2-0.9,0.2-1.3c0-0.4-0.1-0.7-0.2-1C22.3,37.2,21.8,37.5,21.6,38L21.6,38"/>
				</g>
				<g>
					<path class="st4" d="M23.9,37.5c-0.4,0.2-0.3,1-0.3,1.4c0,0.5,0.2,1.1,0.5,1.5c0,0,0.1,0,0.1,0c-0.1-0.5-0.3-1-0.3-1.5
						c0-0.2,0-0.5,0-0.7C23.9,37.8,24,37.6,23.9,37.5L23.9,37.5"/>
				</g>
				<g>
					<path class="st4" d="M23.9,37.3c-0.3,0.4-0.4,0.8-0.3,1.3c0,0.5,0.2,1,0.4,1.4c0,0,0.1,0,0.1,0c-0.1-0.5-0.1-1-0.1-1.4
						C24,38.1,24,37.7,23.9,37.3C23.9,37.3,23.9,37.3,23.9,37.3C23.9,37.3,23.9,37.3,23.9,37.3"/>
				</g>
				<g>
					<path class="st4" d="M24.3,37.6l-0.2,0.1l0.1,0.1c0.3-0.3,0.4-0.6,0.7-0.9c0.4-0.2,0.8-0.3,1.2-0.4c0,0,0,0,0-0.1c0,0,0,0,0,0
						c-0.5-0.2-1-0.2-1.4,0.2c-0.3,0.2-0.7,0.7-0.6,1.1c0,0,0,0,0.1,0c0,0,0,0,0,0C24.2,37.7,24.3,37.7,24.3,37.6
						C24.3,37.6,24.3,37.6,24.3,37.6"/>
				</g>
				<g>
					<path class="st4" d="M24.3,35.4c-0.2,0.2-0.2,0.6,0,0.8c0,0,0,0,0,0c0.3,0.3,0.6,0.4,1,0.4c0,0,0.1,0,0.1-0.1c0,0,0,0,0-0.1
						c-0.2-0.1-0.5-0.2-0.7-0.3C24.4,36,24.3,35.7,24.3,35.4L24.3,35.4"/>
				</g>
				<g>
					<path class="st4" d="M23,33.9c-0.2,0.5-0.1,1,0.2,1.5c0.2,0.2,1,0.6,1.1,0.1c0,0,0-0.1,0-0.1c-0.1-0.1-0.2,0-0.3,0
						c-0.2,0-0.4-0.1-0.6-0.3C23.1,34.7,23,34.3,23,33.9L23,33.9"/>
				</g>
				<g>
					<path class="st4" d="M23,34.6C23,34.5,23,34.5,23,34.6C23,34.5,23,34.5,23,34.6C22.9,34.5,22.9,34.5,23,34.6
						c-0.1,0.3-0.3,0.9-0.7,0.9c-0.1,0-0.3-0.1-0.4,0c-0.1,0.1,0,0.2,0,0.2c0.2,0.2,0.6,0,0.8-0.1c0.1-0.1,0.2-0.3,0.2-0.4
						c0-0.1,0-0.2,0-0.3C23,34.8,23,34.6,23,34.6L23,34.6"/>
				</g>
				<g>
					<path class="st4" d="M21.9,35.5c0.3,0,0.2,0.3,0,0.4c-0.1,0-0.1,0.1-0.2,0.1c-0.2,0.1-0.4,0.2-0.6,0.2c0,0,0,0,0,0c0,0,0,0,0,0
						c0.4,0.1,0.9,0.1,1.1-0.3c0.1-0.1,0-0.3-0.1-0.4C22.1,35.5,22,35.5,21.9,35.5L21.9,35.5"/>
				</g>
				<g>
					<path class="st4" d="M20.2,36.4c0.4,0,1.1-0.1,1.3,0.2c0.2,0.2,0.1,0.4,0,0.7c-0.1,0.2-0.1,0.4-0.2,0.6c0,0,0,0.1,0.1,0
						c0.3-0.4,0.7-1,0.4-1.5S20.6,36.2,20.2,36.4L20.2,36.4"/>
				</g>
				<g>
					<path class="st4" d="M21.6,36.2c0.4,0.3,0.4,0.9,0.1,1.3c0.2-0.1,0.5-0.1,0.7,0c0.2,0.2,0.3,0.4,0.3,0.6c0,0.2,0,0.5,0,0.7
						c-0.1,1.2-0.1,2.4-0.1,3.6c0,0.2,0,0.4,0,0.6c0.6-0.8,1-1.7,1.4-2.6c-0.1-0.7-0.1-1.4-0.1-2c0-0.3,0.1-0.7,0.4-0.9
						c0.2-0.6,0.7-1,1.3-1.1c-0.1-0.1-0.4,0-0.5,0c-0.2,0-0.3,0-0.5,0c-0.1,0-0.2-0.1-0.3-0.1c-0.2-0.2,0-0.5-0.1-0.8
						c-0.5,0.1-1-0.2-1.1-0.7c0,0,0,0,0,0c-0.1,0.2-0.3,0.4-0.5,0.5c-0.2,0.2-0.4,0.3-0.7,0.2l0,0.1c0.1,0,0.1,0.1,0.2,0.1
						c0.1,0.1,0.1,0.1,0.1,0.2c0,0.1-0.1,0.2-0.2,0.3C21.9,36.2,21.7,36.2,21.6,36.2"/>
				</g>
				<g>
					<path class="st4" d="M24.5,49.2C24.5,49.2,24.5,49.2,24.5,49.2c-0.1,0-0.2,0-0.2,0c0,0-0.1,0-0.1,0c0,0-0.1,0-0.1,0l0.3,0.3
						c0.1-0.1,0.2-0.2,0.2-0.3c0.1-0.1,0.1-0.2,0-0.3c-0.1-0.1-0.2-0.1-0.3,0c-0.1,0.1-0.1,0.1-0.2,0.2c-0.1,0.1-0.1,0.2,0,0.3
						c0.1,0.1,0.2,0.1,0.3,0.1c0.1-0.1,0.2-0.1,0.2-0.2c0.1-0.1,0-0.2-0.1-0.3c0,0,0,0,0,0c-0.1,0-0.2,0-0.3,0.1l0.3,0.4
						c0.1-0.1,0.1-0.1,0.2-0.2l-0.4-0.3c-0.1,0.1-0.2,0.2-0.2,0.3c-0.1,0.2,0.2,0.4,0.3,0.3c0,0,0,0,0-0.1c0,0,0-0.1,0,0
						c0,0,0-0.1,0.1-0.1c0,0,0-0.1,0-0.1C24.5,49.3,24.5,49.2,24.5,49.2C24.6,49.2,24.6,49.2,24.5,49.2
						C24.5,49.2,24.5,49.2,24.5,49.2L24.5,49.2"/>
				</g>
				<g>
					<path class="st4" d="M22.7,49.9c0,0.1,0,0.1,0.1,0.2l0.2-0.1c0-0.1-0.1-0.1-0.1-0.2S22.6,49.8,22.7,49.9c0,0.6,0.8,0.6,1.3,0.5
						c0.4-0.1,0.7-0.2,1-0.5c0.3-0.2,0.6-0.4,0.8-0.7c0.1-0.2,0.1-0.6-0.1-0.6c-0.2,0-0.2,0.2-0.3,0.4c-0.1,0.4-0.7,0.7-1.1,0.8
						c-0.3,0.1-1.4,0.7-1.4,0.1L22.7,49.9c0,0.1,0,0.2,0.1,0.2c0.1,0.1,0.3,0,0.2-0.1c0,0-0.1-0.1-0.1-0.1
						C22.8,49.8,22.7,49.8,22.7,49.9C22.7,49.9,22.7,49.9,22.7,49.9"/>
				</g>
				<g>
					<path class="st4" d="M23.1,44.4c-0.4,0.1-0.6,0.5-0.5,0.9c0,0,0,0,0,0c0,0,0,0,0,0C22.7,44.9,22.9,44.7,23.1,44.4"/>
				</g>
				<g>
					<path class="st4" d="M23.2,45c-0.1,0-0.2,0-0.3,0.1c-0.1,0.1-0.2,0.1-0.2,0.2c-0.1,0.2-0.1,0.4-0.1,0.6c0,0,0,0,0.1,0
						c0,0,0,0,0,0c0.1-0.2,0.2-0.3,0.3-0.5c0-0.1,0.1-0.1,0.1-0.2C23.1,45.2,23.2,45.1,23.2,45C23.2,45,23.2,45,23.2,45
						C23.2,45,23.2,45,23.2,45"/>
				</g>
				<g>
					<path class="st4" d="M23.2,46c-0.1,0-0.1,0-0.2,0c-0.1,0.1-0.2,0.1-0.2,0.3c-0.1,0.2-0.1,0.4,0,0.6c0,0,0,0,0.1,0c0,0,0,0,0,0
						c0.1-0.2,0.2-0.3,0.2-0.5c0-0.1,0.1-0.1,0.1-0.2C23.2,46.1,23.2,46,23.2,46L23.2,46"/>
				</g>
				<g>
					<path class="st4" d="M23.3,46.8c-0.2,0.1-0.4,0.2-0.5,0.4c-0.1,0.2-0.1,0.4-0.1,0.7c0,0,0,0,0.1,0c0,0,0,0,0,0
						c0.1-0.2,0.1-0.4,0.2-0.5C23.2,47.2,23.3,47,23.3,46.8C23.4,46.8,23.4,46.8,23.3,46.8"/>
				</g>
				<g>
					<path class="st4" d="M23.3,47.6c-0.3,0.2-0.5,0.7-0.4,1.1c0,0,0,0,0.1,0c0,0,0,0,0,0c0.1-0.2,0.1-0.4,0.2-0.5
						c0.1-0.1,0.2-0.3,0.2-0.4C23.5,47.6,23.4,47.6,23.3,47.6"/>
				</g>
				<g>
					<path class="st4" d="M23.5,48.4c-0.2,0-0.3,0.2-0.3,0.3c-0.1,0.2-0.1,0.4-0.1,0.6c0,0,0,0,0.1,0c0,0,0,0,0,0
						c0.1-0.2,0.1-0.3,0.2-0.5C23.5,48.7,23.6,48.5,23.5,48.4C23.5,48.4,23.5,48.4,23.5,48.4"/>
				</g>
				<g>
					<path class="st4" d="M21.6,35.4c0.1,0.1,0.2,0.3,0.1,0.4c0,0.2-0.2,0.2-0.2,0.4c0,0,0,0.1,0,0.1c0,0,0.1,0,0.1,0
						c0.2-0.1,0.3-0.4,0.3-0.6C21.9,35.6,21.8,35.4,21.6,35.4L21.6,35.4"/>
				</g>
				<g>
					<path class="st4" d="M21.9,36.1C22,36,22,35.9,22,35.7c0,0,0-0.1,0-0.1c0,0,0,0,0,0c-0.1,0-0.1,0.1-0.1,0.2
						C21.8,35.9,21.9,36,21.9,36.1c0.1-0.1,0.2-0.1,0.2-0.2l-0.1,0l0,0c0.1,0,0.1-0.1,0.1-0.2c0-0.1-0.1-0.1-0.2-0.1c0,0,0,0,0,0
						c-0.1,0-0.1,0.1-0.2,0.2C21.8,35.9,21.8,36,21.9,36.1c0.1,0,0.2,0,0.3-0.1c0-0.1,0.1-0.2,0-0.3l-0.3,0.1l0,0v-0.1
						c0,0,0,0,0,0.1H22c0,0,0,0,0,0l-0.1,0C21.9,35.8,21.9,35.9,21.9,36.1C21.9,36,21.9,36.1,21.9,36.1"/>
				</g>
				<g>
					<path class="st4" d="M21.9,35.4c0.3,0.3,0.8,0.3,1.1-0.1c0-0.1,0-0.1,0-0.1c0,0,0,0,0,0c-0.2,0-0.3,0-0.5,0.1
						C22.2,35.4,22,35.4,21.9,35.4C21.9,35.4,21.9,35.4,21.9,35.4"/>
				</g>
				<g>
					<path class="st4" d="M21.2,35c0.2,0.2,0.5,0.4,0.9,0.3c0.1,0,0.1-0.1,0.1-0.2l0,0L22,35.2c0.1,0.1,0.2,0.2,0.4,0.3l0-0.2
						l-0.1,0c-0.1,0-0.2,0.1-0.1,0.2c0,0.1,0.1,0.1,0.1,0.1l0.1-0.2c-0.1,0-0.2-0.1-0.3-0.1c-0.1,0-0.2,0.1-0.1,0.2
						c0.1,0.2,0.2,0.3,0.4,0.2c0,0,0.1-0.1,0.1-0.1c0,0,0,0,0,0c-0.1-0.1-0.2-0.1-0.2-0.2l-0.1,0.2c0.1,0,0.2,0.1,0.2,0.1
						c0.1,0,0.2-0.2,0.1-0.2l0,0l-0.1,0.2c0.1,0,0.1,0,0.2,0c0.1,0,0.1-0.1,0.1-0.1c0,0,0-0.1-0.1-0.1c-0.1,0-0.2-0.1-0.3-0.2
						c0-0.1-0.1-0.1-0.2,0c0,0-0.1,0-0.1,0.1l0,0l0.2-0.1C21.8,35,21.5,35.1,21.2,35L21.2,35"/>
				</g>
				<g>
					<path class="st4" d="M23,33.3L23,33.3C22.9,33.2,22.9,33.2,23,33.3C22.9,33.2,22.9,33.2,23,33.3c-0.1,0.3-0.2,0.7-0.4,1
						c-0.2,0.3-0.3,0.6-0.4,0.9c0,0.1,0,0.2,0.1,0.2c0.1,0,0.1,0,0.2,0c0.3-0.2,0.4-0.6,0.3-1c0,0-0.1-0.1-0.1,0c0,0,0,0,0,0
						c-0.1,0.3-0.2,0.5-0.4,0.7l0.2,0.3c0.2-0.3,0.4-0.6,0.4-1C23,34.3,23,33.3,23,33.3L23,33.3"/>
				</g>
				<g>
					<path class="st4" d="M23,33.4c-0.2,0.5-0.2,1.1,0.1,1.6c0.2,0.2,0.4,0.4,0.6,0.5c0.2,0.1,0.5,0.1,0.7-0.1c0,0,0,0,0-0.1
						c0,0,0,0,0,0c-0.1,0-0.2-0.1-0.2-0.2c-0.1,0-0.2-0.1-0.3-0.1c-0.2-0.1-0.3-0.3-0.4-0.4C23.2,34.2,23,33.8,23,33.4L23,33.4"/>
				</g>
				<g>
					<path class="st4" d="M24.3,35.3c-0.3,0.1-0.2,0.5-0.1,0.6c0.2,0.3,0.5,0.4,0.8,0.3c0,0,0.1-0.1,0-0.1c0,0,0,0,0,0
						C25,36.1,25,36,24.9,36c-0.1,0-0.2-0.1-0.3-0.2C24.5,35.7,24.4,35.5,24.3,35.3L24.3,35.3"/>
				</g>
				<g>
					<path class="st4" d="M24.4,35.3c-0.3,0.4,0.1,0.7,0.4,0.9c0.4,0.3,0.9,0.3,1.4,0.2c0,0,0,0,0,0c0,0,0,0,0,0
						c-0.2-0.2-0.5-0.3-0.8-0.4C25.1,35.9,24.5,35.7,24.4,35.3"/>
				</g>
				<g>
					<path class="st4" d="M26.2,33.7c-0.3,0.3-0.7,0.6-1.1,0.9c-0.4,0.2-0.8,0.6-1.3,0.5c-0.1,0-0.2,0-0.2,0.1c0,0.1,0,0.2,0.1,0.2
						c0.4,0.3,1-0.1,1.3-0.4C25.5,34.6,25.9,34.2,26.2,33.7C26.2,33.7,26.2,33.7,26.2,33.7"/>
				</g>
				<g>
					<path class="st4" d="M25.8,34.2c-0.5,0.2-0.9,0.6-1.2,1c-0.2,0.3-0.4,1,0,1.3c0.1,0,0.1,0,0.2,0c0.1-0.2,0.1-0.3,0.1-0.5
						c0-0.2,0.1-0.5,0.2-0.7C25.2,34.9,25.5,34.5,25.8,34.2C25.8,34.2,25.8,34.2,25.8,34.2"/>
				</g>
				<g>
					<path class="st4" d="M24.6,35.8c0-0.1,0.1-0.3,0.1-0.4c0.1-0.1,0.1-0.2,0.2-0.3c0,0,0,0,0,0c-0.2,0.2-0.4,0.4-0.6,0.6
						c-0.1,0.1,0,0.3,0.2,0.2c0.1-0.1,0.2-0.2,0.3-0.4c0-0.1-0.1-0.2-0.1-0.1c-0.1,0.1-0.1,0.1-0.2,0.3c0,0.1,0,0.1,0.1,0.1
						c0,0,0.1,0,0.1,0l0.1-0.2l-0.2-0.1c0,0,0,0.1,0,0.2c0,0,0,0,0.1,0c0,0,0,0,0,0c0,0,0.1-0.1,0.1-0.1c0-0.1,0-0.1-0.1-0.1
						c0,0-0.1,0-0.1,0l-0.1,0.2l0.2,0.1c0-0.1,0-0.1,0.1-0.1l-0.1-0.1c-0.1,0.1-0.1,0.2-0.2,0.3l0.2,0.1c0.1-0.1,0.1-0.3,0.2-0.4
						c0-0.1,0.1-0.1,0.1-0.2c0,0,0.1-0.1,0.1-0.1c0,0,0,0,0,0c-0.1,0-0.1,0.2-0.2,0.3C24.6,35.5,24.6,35.7,24.6,35.8
						C24.5,35.8,24.6,35.8,24.6,35.8"/>
				</g>
				<g>
					<path class="st4" d="M23.3,33.8c0.6-0.7,1-1.5,1.5-2.3c0.2-0.4,0.4-0.8,0.6-1.2c0.2-0.3,0.5-0.8,0.5-1.2c0-0.1-0.1-0.1-0.1-0.1
						c0,0,0,0-0.1,0c-0.3,0.2-0.5,0.7-0.7,1.1c-0.2,0.4-0.4,0.8-0.6,1.2C23.9,32.1,23.6,32.9,23.3,33.8
						C23.2,33.8,23.3,33.8,23.3,33.8"/>
				</g>
				<g>
					<path class="st4" d="M19.8,33c0.5,0.6,1.1,1.1,1.8,1.5c0.2,0.2,0.5,0.4,0.8,0.4c0.2,0,0.5-0.1,0.5-0.4c0-0.1-0.1-0.1-0.1-0.1
						c-0.1,0-0.2,0-0.3,0.1c-0.1,0-0.3,0-0.4,0c-0.3-0.1-0.6-0.3-0.8-0.4C20.8,33.7,20.3,33.3,19.8,33C19.8,32.9,19.8,32.9,19.8,33
						C19.8,33,19.8,33,19.8,33L19.8,33"/>
				</g>
				<g>
					<path class="st4" d="M22.1,34.8c0,0.1,0.1,0.2,0.2,0.3c0,0,0.1,0,0.1,0c0,0,0,0,0,0c0-0.1,0-0.2-0.1-0.3c0,0,0,0,0,0
						C22.2,34.8,22.2,34.8,22.1,34.8c0,0.1,0,0.3,0,0.4c0,0.1,0.1,0.1,0.2,0c0,0,0,0,0,0c0.1-0.2,0-0.4-0.1-0.6
						c-0.1-0.1-0.1-0.1-0.2,0c-0.1,0.1-0.2,0.2-0.2,0.3c0,0.1,0.1,0.2,0.2,0.3c0.1,0,0.2,0,0.2-0.1c0-0.2-0.1-0.4-0.3-0.4
						c-0.1,0-0.2,0-0.2,0.1c0,0.1-0.1,0.1,0,0.2c0.1,0.1,0.2,0.2,0.3,0.2l-0.1,0h0c0,0,0.1,0,0.1-0.1l0,0l0,0.1
						C22.4,35,22.3,34.8,22.1,34.8L22,35c0,0,0,0,0,0s0,0,0,0s0,0,0,0l0.2-0.2c0,0,0,0,0,0l-0.2,0c0.1,0.1,0.1,0.2,0.1,0.3l0.2-0.1
						c0,0-0.1-0.1,0-0.1c0,0,0,0,0,0l-0.1,0c0,0,0.1,0,0.1,0.1c0,0,0,0,0,0l0.1,0C22.3,34.9,22.2,34.9,22.1,34.8
						C22.2,34.8,22.2,34.8,22.1,34.8C22.1,34.8,22.1,34.8,22.1,34.8"/>
				</g>
				<g>
					<path class="st4" d="M23,34.4c0.3,0.6,1.1,0.3,1.5,0c0.3-0.2,0.6-0.5,0.9-0.7c0.4-0.3,0.7-0.6,1-0.9c0,0,0-0.1,0,0
						c-0.3,0.2-0.5,0.4-0.8,0.6s-0.6,0.3-0.8,0.5C24.3,34.3,23.6,34.5,23,34.4C23,34.4,23,34.4,23,34.4C23,34.4,23,34.4,23,34.4"/>
				</g>
				<g>
					<path class="st4" d="M24,34.6c0.1-0.1,0.2-0.1,0.3-0.2l0-0.1c-0.2,0.2-0.5,0.4-0.8,0.5l0.1,0.3c0.2-0.1,0.4-0.2,0.6-0.4
						L24,34.5c-0.2,0.2-0.4,0.3-0.6,0.5l0.2,0.3l0.3-0.4c0.1-0.1,0-0.3-0.2-0.3c-0.1,0-0.2,0.1-0.4,0.2c-0.1,0-0.1,0.1-0.1,0.2
						c0,0,0.1,0.1,0.1,0.1c0.1,0,0.2-0.1,0.2-0.2c0-0.1,0-0.1,0-0.1c-0.1-0.2-0.3-0.1-0.5,0c-0.2,0.1,0,0.4,0.2,0.3c0,0,0.1,0,0.1,0
						c0,0,0,0,0,0l0-0.1c0,0,0,0,0,0l0-0.1l0,0l0.1,0h0l0.1,0.3c0.1-0.1,0.2-0.1,0.3-0.1l-0.2-0.3L23.4,35c-0.1,0.1,0,0.4,0.2,0.3
						c0.2-0.2,0.4-0.3,0.6-0.5c0.2-0.1,0-0.4-0.2-0.3c-0.2,0.1-0.4,0.2-0.6,0.4c-0.1,0.1,0,0.3,0.1,0.2c0.3-0.2,0.6-0.4,0.8-0.7
						c0,0,0-0.1-0.1,0C24.2,34.5,24.1,34.6,24,34.6C24,34.6,24,34.7,24,34.6"/>
				</g>
				<g>
					<path class="st4" d="M25.9,33.5c0.1-0.1,0.3-0.2,0.4-0.3c0.1-0.1,0-0.1-0.1-0.1c-1.1,0.6-2,1.6-2.5,2.8l0.3,0.1
						c0.1-0.6,0.4-1.1,0.7-1.6c0.1-0.1-0.1-0.2-0.2-0.1c-0.3,0.3-0.6,0.7-0.8,1l0.2,0.1c0.1-0.2,0.3-0.4,0.5-0.6
						c0.1-0.1,0.1-0.2,0-0.2s-0.2-0.1-0.2,0c-0.2,0.2-0.4,0.4-0.6,0.6l0.2,0.2c0.1-0.2,0.3-0.4,0.4-0.5s-0.1-0.4-0.2-0.2
						c-0.2,0.2-0.4,0.4-0.6,0.7c0,0.1,0.1,0.2,0.2,0.1c0.3-0.2,0.5-0.4,0.7-0.6l-0.3-0.2c-0.1,0.2-0.3,0.4-0.4,0.5
						c-0.1,0.2,0.1,0.4,0.3,0.2c0.2-0.2,0.4-0.4,0.6-0.6l-0.2-0.2c-0.1,0.2-0.3,0.5-0.4,0.7c-0.1,0.1,0.1,0.2,0.2,0.1
						c0.3-0.3,0.5-0.7,0.8-1l-0.2-0.1c-0.3,0.5-0.6,1-0.9,1.5c-0.1,0.2,0.2,0.4,0.3,0.2c0.6-1.1,1.3-2.1,2.3-2.8l-0.1-0.1
						C26.1,33.3,26,33.4,25.9,33.5C25.9,33.5,25.9,33.5,25.9,33.5"/>
				</g>
				<g>
					<path class="st4" d="M20.8,34L20.8,34C20.7,34,20.7,34,20.8,34C20.7,34,20.7,34,20.8,34c0.2,0.3,0.5,0.6,0.8,0.9
						c0.1,0.2,0.3,0.3,0.4,0.5c0.1,0.1,0.1,0.2,0.3,0.2c0,0,0.1,0,0.1-0.1c0.1-0.3-0.4-0.7-0.6-0.8c-0.1-0.1-0.3-0.2-0.5-0.3
						C21.2,34.3,20.8,34,20.8,34C20.8,34,20.8,34,20.8,34"/>
				</g>
				<g>
					<path class="st4" d="M21.6,35.4c0.1,0.2,0,0.4-0.2,0.5c-0.1,0.1-0.3,0.1-0.5,0.2c0,0-0.1,0-0.1,0.1c0,0,0,0.1,0,0.1
						c0,0,0.1,0,0.1,0c0.3,0,0.5-0.1,0.7-0.3C21.8,35.8,21.8,35.6,21.6,35.4"/>
				</g>
				<g>
					<path class="st4" d="M21.6,35.5c0.1,0.1,0.1,0.3,0.1,0.4c0,0.1,0.2,0.1,0.2,0c0-0.2,0-0.4-0.1-0.6
						C21.7,35.2,21.5,35.4,21.6,35.5"/>
				</g>
			</g>
		</g>
	</g>
</g>
</svg>
